<svg width="960" height="960" viewBox="0 0 960 960" fill="none" xmlns="http://www.w3.org/2000/svg">
<g clip-path="url(#clip0_46_7775)">
<g clip-path="url(#clip1_46_7775)">
<path fill-rule="evenodd" clip-rule="evenodd" d="M662.905 323.892L662.453 324L683.976 417.701L714.351 409.096L715.151 409.596C726.532 390.684 753.223 385.98 779.928 381.273C792.013 379.143 804.102 377.012 814.775 373.563C818.518 372.358 823.196 371.616 826.596 372.971L826.725 372.648L850.518 363.032L821.818 272.647H821.807L820.592 273.034C811.944 272.442 804.35 278.613 798.617 285.113C797.574 286.296 796.546 287.512 795.516 288.73C790.886 294.207 786.202 299.748 779.761 302.713C771.412 306.549 762.051 305.272 752.675 303.992C743.523 302.743 734.355 301.492 726.098 304.993C719.702 307.709 714.749 312.942 709.84 318.129C703.976 324.326 698.175 330.455 690.054 332.142C680.545 334.11 671.058 329.173 662.905 323.892ZM816.279 286.2C815.992 285.357 815.075 284.906 814.232 285.193C813.388 285.481 812.937 286.397 813.225 287.241L837.273 357.841C837.56 358.684 838.477 359.135 839.32 358.848C840.164 358.561 840.615 357.644 840.327 356.8L816.279 286.2Z" fill="url(#paint0_linear_46_7775)"/>
<path fill-rule="evenodd" clip-rule="evenodd" d="M764.551 469.838C761.221 464.587 756.628 460.255 751.192 457.238C741.619 451.667 729.69 449.021 718.579 446.923C715.928 446.373 713.244 445.996 710.544 445.794C706.93 445.419 703.285 446.119 700.067 447.805C690.559 453.27 691.279 466.93 692.796 477.783C697.977 514.706 697.984 552.173 692.818 589.099C691.29 599.963 688.634 611.902 679.663 618.216C666.841 627.23 648.072 619.109 639.112 606.255C632.684 597.033 629.577 586.14 626.468 575.239L626.468 575.238L626.468 575.237C625.243 570.944 624.018 566.649 622.59 562.455C607.145 517.042 564.335 482.17 516.728 476.233C513.764 475.815 510.768 475.681 507.779 475.833V475.843L507.801 476.101C510.903 482.628 513.26 489.484 514.826 496.54C520.039 500.241 524.791 504.553 528.981 509.383C545.05 527.85 552.806 553.611 548.374 577.683C543.942 601.755 526.969 623.44 504.198 632.432C481.427 641.424 453.569 636.82 435.681 620.105C420.666 606.079 413.444 585.04 413.244 564.496C413.09 548.803 416.705 533.336 422.244 518.589C420.257 513.185 418.479 507.713 416.909 502.175L416.92 502.046C409.391 501.282 401.259 502.81 393.999 505.176C376.574 510.823 360.762 520.062 346.048 531.055C334.328 539.973 323.14 549.57 312.542 559.796C293.288 578.006 274.723 597.271 260.697 619.751C246.671 642.231 237.324 668.261 237.98 694.743C239.131 741.854 272.884 784.373 315.661 804.143C355.34 822.493 401.226 823.418 444.079 814.071C447.435 813.34 450.759 812.544 454.072 811.694C499.708 799.927 541.84 777.608 582.972 754.6C588.393 751.566 594.094 748.221 596.987 742.714C598.774 739.252 599.371 735.298 598.687 731.463C597.418 723.312 591.62 715.07 586.027 708.412C580.617 701.959 574.54 695.182 567.527 690.74L569.001 690.54C566.238 677.499 566.195 664.028 568.874 650.97C569.487 648.034 570.584 644.688 573.402 643.634C575.747 642.762 578.468 643.946 580.114 645.828C581.625 647.834 582.699 650.135 583.266 652.583C583.545 653.52 583.819 654.462 584.094 655.404L584.096 655.411C585.958 661.798 587.833 668.235 591.366 673.848C595.421 680.291 602.219 685.594 609.834 685.562C617.731 685.523 624.163 680.108 630.34 674.908C631.366 674.045 632.384 673.187 633.401 672.362C639.31 667.562 645.824 663.559 652.777 660.458C656.384 658.845 661.339 657.801 663.684 660.996C666.352 664.644 662.705 669.496 659.317 672.496C654.57 676.709 650.123 680.865 645.677 685.021L645.676 685.021L645.676 685.022C641.326 689.086 636.978 693.15 632.351 697.267L632.451 697.375C644.458 692.429 655.774 685.951 666.118 678.1C666.25 677.999 666.381 677.899 666.514 677.798C668.948 675.941 671.451 674.033 674.454 673.464C677.62 672.864 681.424 674.355 682.22 677.464C683.016 680.573 680.596 683.514 678.262 685.714C669.237 694.215 658.783 701.057 647.381 705.925C649.342 705.241 651.336 704.541 653.333 703.839C669.946 698.002 686.851 692.063 688.19 694.857C685.856 703.085 678.746 708.506 670.84 712.4L670.94 712.594C701.273 721.898 734.563 702.182 750.708 674.861C762.464 654.952 767.143 632.03 769.273 608.786C770.069 600.138 770.499 591.458 770.822 582.864C771.843 555.69 771.961 528.523 771.177 501.364C770.876 490.501 770.263 479.088 764.551 469.838ZM344.651 715.839L344.371 716.226C329.979 705.922 319.073 690.261 317.331 672.736C315.534 654.644 323.559 636.595 335.584 622.967C338.811 619.326 342.29 615.918 345.996 612.767L346.168 612.967C345.887 630.668 345.646 647.636 345.406 664.608L345.406 664.613C345.167 681.446 344.929 698.282 344.651 715.839ZM536.684 491.667C535.854 491.341 534.918 491.75 534.592 492.579C534.266 493.409 534.674 494.345 535.504 494.671C581.325 512.666 615.626 557.193 621.337 606.087C621.441 606.972 622.242 607.606 623.127 607.503C624.012 607.399 624.646 606.598 624.542 605.713C618.693 555.635 583.613 510.098 536.684 491.667ZM758.655 493.124C759.544 493.177 760.222 493.942 760.168 494.831L760.046 496.851C758.634 520.252 758.035 530.173 759.369 554.286C760.747 579.209 760.933 604.707 754.757 629.126C748.579 653.552 735.39 677.139 714.425 691.537C713.691 692.042 712.686 691.855 712.182 691.121C711.677 690.386 711.864 689.382 712.598 688.877C732.734 675.048 745.581 652.246 751.628 628.335C757.678 604.415 757.522 579.326 756.147 554.464C754.802 530.164 755.41 520.096 756.825 496.66L756.947 494.637C757.001 493.748 757.765 493.07 758.655 493.124ZM346.583 602.528C347.391 602.151 347.739 601.191 347.362 600.383C346.985 599.576 346.024 599.227 345.217 599.605C315.432 613.525 297.793 649.32 304.897 681.415C312 713.51 343.098 738.523 375.969 738.58C376.861 738.581 377.584 737.86 377.586 736.969C377.587 736.078 376.866 735.354 375.975 735.353C344.615 735.298 314.824 711.337 308.048 680.718C301.271 650.099 318.168 615.808 346.583 602.528Z" fill="url(#paint1_linear_46_7775)"/>
<path d="M528.979 509.384C545.049 527.852 552.804 553.603 548.372 577.684C543.94 601.765 526.978 623.452 504.196 632.433C481.414 641.414 453.567 636.822 435.679 620.106C420.663 606.08 413.446 585.041 413.242 564.497C413.091 548.804 416.706 533.336 422.242 518.59C427.647 533.352 434.541 547.525 442.819 560.89C448.713 570.398 456.071 580.058 466.773 583.327C477.273 586.532 489.06 582.617 497.192 575.249C505.324 567.881 510.239 557.566 513.24 547.003C517.944 530.572 518.488 513.229 514.821 496.535C520.036 500.238 524.789 504.552 528.979 509.384V509.384Z" fill="url(#paint2_linear_46_7775)"/>
<path d="M514.824 496.542C518.491 513.235 517.948 530.578 513.243 547.009C510.243 557.572 505.337 567.899 497.195 575.256C489.053 582.613 477.275 586.539 466.776 583.334C456.076 580.064 448.716 570.405 442.822 560.897C434.545 547.532 427.65 533.359 422.245 518.597C423.934 514.079 425.816 509.626 427.817 505.259C429.311 506.061 430.714 507.022 432 508.127C444.6 518.969 442.52 539.976 453.534 552.432C456.94 556.283 461.401 559.05 466.365 560.39C471.329 561.731 476.576 561.585 481.458 559.972C486.34 558.358 490.641 555.348 493.828 551.313C497.015 547.279 498.948 542.398 499.388 537.276C500.281 526.929 495.088 517.183 492.188 507.202C490.728 502.354 490.249 497.264 490.779 492.229C491.017 490.17 491.527 488.153 492.296 486.229L492.909 486.283C500.781 488.33 508.21 491.807 514.824 496.542V496.542Z" fill="url(#paint3_linear_46_7775)"/>
<path d="M514.824 496.542C508.211 491.807 500.784 488.329 492.914 486.281L492.301 486.227C493.483 483.194 495.562 480.594 498.26 478.773C501.12 476.976 504.403 475.967 507.779 475.847L507.801 476.105C510.902 482.631 513.258 489.487 514.824 496.542V496.542Z" fill="url(#paint4_linear_46_7775)"/>
<path d="M449.394 819.517L449.362 821.141C429.796 853.367 395.14 874.841 358.322 882.925C321.504 891.009 282.738 886.657 246.737 875.471C163.882 849.731 93.4073 786.7 58.6113 707.223C77.9183 687.733 103.701 676.955 131.111 678.257L131.186 678.214C155.011 724.627 186.527 766.92 227.786 802.394C258.979 829.285 295.55 846.494 336.424 850.794C368.693 852.945 407.867 847.954 444.685 816.815L446.234 816.503C447.275 817.527 448.329 818.527 449.394 819.517Z" fill="url(#paint5_linear_46_7775)"/>
<path d="M444.08 814.075C447.436 813.344 450.76 812.548 454.073 811.698C499.712 799.931 541.844 777.612 582.973 754.604C588.394 751.571 594.095 748.226 596.988 742.718C598.776 739.256 599.373 735.302 598.688 731.467C620.563 728.833 642.045 723.596 662.677 715.867C665.388 714.845 668.163 713.705 670.841 712.393L670.941 712.587C701.273 721.887 734.564 702.175 750.709 674.854C762.466 654.944 767.144 632.023 769.274 608.779C819.592 604.971 870.027 603.412 920.033 610.285C882.4 657.261 844.662 704.341 802.165 746.979C754.665 794.618 699.551 837.428 634.809 855.692C571.477 873.569 497.509 864.082 449.394 819.519C448.329 818.529 447.275 817.529 446.232 816.507L444.683 816.819L444.08 814.075Z" fill="#171717"/>
<path d="M416.921 502.049C420.732 502.375 424.439 503.463 427.821 505.249C425.821 509.616 423.938 514.069 422.249 518.587C420.259 513.187 418.481 507.715 416.914 502.173L416.921 502.049Z" fill="url(#paint6_linear_46_7775)"/>
<path d="M397.99 372.383C401.841 372.405 405.681 372.265 409.51 371.983C438.224 369.829 465.831 359.996 489.439 343.511C495.996 338.949 502.189 333.886 507.961 328.366C510.22 326.215 512.414 323.977 514.533 321.686" stroke="#171717" stroke-width="3.227" stroke-linecap="round" stroke-linejoin="round"/>
<path d="M488.578 343.738C488.868 343.663 489.148 343.587 489.439 343.512C494.664 342.252 500.125 342.363 505.294 343.835" stroke="#171717" stroke-width="3.227" stroke-linecap="round" stroke-linejoin="round"/>
<path d="M489.46 361.9C491.129 360.118 493.224 358.788 495.547 358.036C497.871 357.284 500.347 357.134 502.744 357.6" stroke="#171717" stroke-width="3.227" stroke-linecap="round" stroke-linejoin="round"/>
<path d="M448.565 376.136C452.971 373.329 458.067 371.791 463.29 371.694" stroke="#171717" stroke-width="3.227" stroke-linecap="round" stroke-linejoin="round"/>
<path d="M485.05 399.585C487.343 399.509 489.575 398.822 491.514 397.595C488.051 388.355 484.588 379.119 481.124 369.887" stroke="#171717" stroke-width="3.227" stroke-linecap="round" stroke-linejoin="round"/>
<path d="M457.149 418.773C459.401 421.055 462.417 422.423 465.617 422.611C468.817 422.8 471.974 421.797 474.477 419.795" stroke="#171717" stroke-width="3.227" stroke-linecap="round" stroke-linejoin="round"/>
<path d="M508.069 328.476C520.041 346.256 524.257 368.801 520.525 389.851C518.876 399.337 515.543 408.451 510.683 416.763C500.798 433.51 485.126 446.601 477.124 464.327C474.295 470.587 472.51 477.848 474.919 484.28C477.328 490.712 484.524 495.423 490.619 492.24" stroke="#171717" stroke-width="3.227" stroke-linecap="round" stroke-linejoin="round"/>
<path d="M409.467 371.919C409.478 371.941 409.499 371.962 409.51 371.984C432.699 403.259 445.924 440.796 447.458 479.7C447.652 484.766 447.619 489.972 445.834 494.726C444.049 499.48 432.862 504.202 427.871 505.138" stroke="#171717" stroke-width="3.227" stroke-linecap="round" stroke-linejoin="round"/>
<path d="M379.301 590.8C367.62 597.178 356.068 604.138 346.001 612.764C342.295 615.916 338.816 619.324 335.589 622.964C323.564 636.592 315.539 654.641 317.336 672.733C319.079 690.266 329.985 705.927 344.377 716.233C345.937 717.352 347.529 718.395 349.164 719.385C365.864 729.485 385.724 733.26 405.236 733.895C446.684 735.128 487.451 723.141 521.636 699.669C530.886 693.28 540.502 685.761 551.743 685.761C557.375 685.879 562.855 687.612 567.533 690.752C574.546 695.194 580.623 701.971 586.033 708.424C591.626 715.082 597.424 723.324 598.693 731.475C599.377 735.311 598.78 739.265 596.993 742.726C594.1 748.233 588.399 751.578 582.978 754.612C541.846 777.62 499.714 799.939 454.078 811.706C450.765 812.556 447.441 813.352 444.085 814.083C401.232 823.43 355.346 822.505 315.667 804.155C272.89 784.385 239.137 741.866 237.986 694.755C237.33 668.273 246.677 642.243 260.703 619.763C274.729 597.283 293.294 578.018 312.548 559.808C323.146 549.583 334.334 539.986 346.054 531.067C360.768 520.074 376.58 510.835 394.005 505.188C401.265 502.822 409.397 501.294 416.926 502.058C420.737 502.386 424.444 503.476 427.826 505.263C429.316 506.064 430.716 507.024 432.001 508.126C444.596 518.968 442.521 539.975 453.535 552.431C456.941 556.283 461.402 559.05 466.365 560.39C471.329 561.731 476.577 561.585 481.459 559.971C486.34 558.358 490.641 555.348 493.828 551.313C497.015 547.279 498.949 542.398 499.389 537.275C500.282 526.928 495.089 517.182 492.189 507.201C490.728 502.354 490.249 497.263 490.78 492.228C491.017 490.17 491.527 488.152 492.297 486.228C493.479 483.196 495.558 480.596 498.256 478.774C501.116 476.978 504.399 475.969 507.775 475.848V475.837C510.764 475.686 513.76 475.819 516.724 476.237C564.331 482.174 607.141 517.046 622.586 562.459C627.641 577.303 630.148 593.405 639.108 606.259C648.068 619.113 666.837 627.234 679.659 618.22C688.63 611.906 691.286 599.967 692.814 589.103C697.98 552.177 697.973 514.711 692.792 477.787C691.275 466.934 690.555 453.274 700.063 447.809C703.281 446.124 706.926 445.424 710.54 445.798C713.239 446.001 715.923 446.378 718.575 446.927C729.686 449.027 741.615 451.67 751.188 457.242C756.624 460.26 761.217 464.592 764.547 469.842C770.259 479.092 770.872 490.505 771.173 501.368C771.958 528.528 771.84 555.694 770.818 582.868C770.495 591.462 770.065 600.142 769.269 608.79C767.139 632.034 762.46 654.956 750.704 674.865C734.559 702.186 701.269 721.902 670.936 712.598" stroke="#171717" stroke-width="3.227" stroke-linecap="round" stroke-linejoin="round"/>
<path d="M346.166 612.967C345.607 648.226 345.209 680.58 344.649 715.839" stroke="#171717" stroke-width="3.227" stroke-linecap="round" stroke-linejoin="round"/>
<path d="M569 690.539C566.237 677.498 566.193 664.027 568.871 650.967C569.484 648.031 570.581 644.685 573.399 643.631C575.744 642.76 578.465 643.943 580.111 645.825C581.623 647.832 582.696 650.133 583.263 652.58C585.436 659.873 587.307 667.402 591.363 673.845C595.419 680.288 602.216 685.591 609.831 685.559C619.038 685.516 626.256 678.159 633.398 672.359C639.31 667.558 645.826 663.555 652.781 660.452C656.381 658.839 661.343 657.795 663.688 660.99C666.356 664.636 662.709 669.49 659.321 672.49C649.931 680.826 641.713 688.936 632.355 697.261L632.097 697.487" stroke="#171717" stroke-width="3.227" stroke-linecap="round" stroke-linejoin="round"/>
<path d="M598.442 731.5C598.528 731.489 598.603 731.478 598.689 731.468C620.564 728.835 642.046 723.598 662.678 715.868C665.389 714.846 668.164 713.706 670.842 712.394C678.748 708.5 685.858 703.079 688.192 694.851C686.692 691.721 665.658 699.551 647.383 705.919C641.93 707.819 636.713 709.587 632.346 710.899" stroke="#171717" stroke-width="3.227" stroke-linecap="round" stroke-linejoin="round"/>
<path d="M632.754 710.934C637.748 709.63 642.638 707.955 647.382 705.922C658.785 701.054 669.239 694.212 678.263 685.711C680.597 683.506 683.017 680.57 682.221 677.461C681.425 674.352 677.621 672.861 674.455 673.461C671.289 674.061 668.679 676.15 666.119 678.097C655.776 685.948 644.459 692.426 632.452 697.372" stroke="#171717" stroke-width="3.227" stroke-linecap="round" stroke-linejoin="round"/>
<path d="M427.87 505.135C427.848 505.178 427.838 505.21 427.816 505.253C425.816 509.62 423.933 514.073 422.244 518.591C416.705 533.338 413.09 548.805 413.244 564.498C413.444 585.042 420.666 606.081 435.681 620.107C453.569 636.822 481.427 641.426 504.198 632.434C526.969 623.442 543.942 601.757 548.374 577.685C552.806 553.613 545.05 527.852 528.981 509.385C524.791 504.556 520.039 500.244 514.826 496.542C508.213 491.808 500.787 488.33 492.916 486.281" stroke="#171717" stroke-width="3.227" stroke-linecap="round" stroke-linejoin="round"/>
<path d="M416.91 502.178C418.48 507.716 420.258 513.188 422.245 518.592C427.65 533.354 434.545 547.527 442.822 560.892C448.716 570.4 456.074 580.06 466.776 583.329C477.276 586.534 489.063 582.619 497.195 575.251C505.327 567.883 510.242 557.568 513.243 547.005C517.948 530.573 518.491 513.23 514.824 496.537C513.258 489.482 510.902 482.627 507.8 476.101" stroke="#171717" stroke-width="3.227" stroke-linecap="round" stroke-linejoin="round"/>
<path d="M521.137 389.914C550.63 372.392 562.322 331.841 550.319 299.702C538.316 267.563 505.96 245.254 471.9 241.124C437.84 236.994 403 249.482 376.155 270.843C349.31 292.204 329.914 321.843 316.394 353.365C305.907 377.814 298.7 403.618 287.331 427.665C280.006 443.154 270.631 458.159 258.59 470.206C251.985 476.916 244.41 482.597 236.12 487.061C210.897 500.452 180.672 500.291 153.867 510.133C127.181 519.933 105.26 539.282 88.7272 562.677C81.8069 572.494 75.8015 582.925 70.7862 593.838C53.8782 630.473 46.8752 670.765 40.0342 710.531" stroke="#171717" stroke-width="3.227" stroke-linecap="round" stroke-linejoin="round"/>
<path d="M436.712 425.238C400.388 425.538 370.217 452.763 347.188 480.848C338.988 490.84 331.021 501.317 322.696 511.385C307.637 529.595 291.396 546.485 270.442 556.862C226.761 578.514 172.302 566.908 128.46 588.206C118.42 593.165 109.161 599.569 100.978 607.212C90.2822 617.265 81.0074 628.729 73.4099 641.288C59.9649 663.1 50.7469 687.2 41.6469 711.15C41.5719 711.35 41.4959 711.55 41.4209 711.75" stroke="#171717" stroke-width="3.227" stroke-linecap="round" stroke-linejoin="round"/>
<path d="M322.524 511.244C322.584 511.287 322.642 511.334 322.696 511.384C330.688 517.612 338.444 524.131 345.962 530.939" stroke="#171717" stroke-width="3.227" stroke-linecap="round" stroke-linejoin="round"/>
<path d="M73.6904 420.484C138.722 421.603 201.968 440.984 258.481 470.102" stroke="#171717" stroke-width="3.227" stroke-linecap="round" stroke-linejoin="round"/>
<path d="M101.667 607.965C109.751 632.08 119.617 655.561 131.182 678.214C155.007 724.627 186.523 766.92 227.782 802.394C258.975 829.285 295.546 846.494 336.42 850.794C368.689 852.945 407.863 847.954 444.681 816.815" stroke="#171717" stroke-width="3.227" stroke-linecap="round" stroke-linejoin="round"/>
<path d="M72.8413 420.517C70.7413 468.952 77.1973 516.279 87.8463 562.058" stroke="#171717" stroke-width="3.227" stroke-linecap="round" stroke-linejoin="round"/>
<path d="M446.231 816.506C447.274 817.528 448.331 818.528 449.393 819.518C497.505 864.081 571.476 873.568 634.808 855.691C699.55 837.427 754.664 794.617 802.164 746.978C844.664 704.34 882.394 657.261 920.03 610.288C870.024 603.415 819.589 604.974 769.271 608.782" stroke="#171717" stroke-width="3.227" stroke-linecap="round" stroke-linejoin="round"/>
<path d="M131.107 678.256C103.7 676.956 77.9184 687.732 58.6074 707.222C93.4074 786.7 163.878 849.731 246.733 875.47C282.733 886.656 321.499 891.023 358.318 882.924C395.137 874.825 429.793 853.366 449.358 821.14" stroke="#171717" stroke-width="3.227" stroke-linecap="round" stroke-linejoin="round"/>
<path d="M710.554 445.546C707.962 429.734 709.973 418.193 715.147 409.599C731.679 382.128 780.512 384.634 814.771 373.566C818.514 372.366 823.193 371.619 826.592 372.974C828.083 373.521 829.327 374.586 830.099 375.974C831.605 378.674 830.863 382.191 829.045 384.697C827.227 387.203 824.517 388.881 821.806 390.376C807.371 398.346 773.425 402.337 760.151 412.136C745.888 422.677 753.644 439.672 751.191 457.236C751.191 457.258 751.18 457.279 751.18 457.301" stroke="#171717" stroke-width="3.227" stroke-linecap="round" stroke-linejoin="round"/>
<path d="M714.351 409.104L683.975 417.708L662.452 324L659.677 311.911L689.547 272.435L763.442 250.159L815.373 256.097L816.599 256.236L821.805 272.65H821.816L850.514 363.035L826.721 372.651" stroke="#171717" stroke-width="3.227" stroke-linecap="round" stroke-linejoin="round"/>
<path d="M659.677 311.911L815.201 257.624" stroke="#171717" stroke-width="3.227" stroke-linecap="round" stroke-linejoin="round"/>
<path d="M831.271 175.748C831.272 186.761 828.008 197.527 821.89 206.685C815.772 215.842 807.076 222.98 796.901 227.195C786.726 231.41 775.53 232.513 764.729 230.364C753.927 228.216 744.006 222.913 736.218 215.125C728.431 207.337 723.128 197.415 720.98 186.614C718.832 175.812 719.936 164.616 724.152 154.442C728.367 144.267 735.505 135.571 744.663 129.454C753.821 123.337 764.587 120.072 775.6 120.074C790.365 120.076 804.524 125.942 814.965 136.383C825.405 146.824 831.27 160.983 831.271 175.748V175.748Z" stroke="#171717" stroke-width="3.227" stroke-linecap="round" stroke-linejoin="round"/>
<path d="M732.959 258.3C730.86 246.508 727.305 235.022 722.375 224.106C720.095 219.051 717.363 213.931 712.813 210.758C706.854 206.585 698.475 206.658 692.14 210.242C685.805 213.826 681.54 220.503 680.104 227.624C679.147 232.292 679.286 237.24 677.415 241.624C674.823 247.669 668.702 251.617 662.335 253.262C655.968 254.907 649.288 254.562 642.716 254.219" stroke="#171717" stroke-width="3.227" stroke-linecap="round" stroke-linejoin="round"/>
<path d="M719.966 218.332C723.666 215.622 727.366 212.908 731.066 210.19" stroke="#171717" stroke-width="3.227" stroke-linecap="round" stroke-linejoin="round"/>
<path d="M662.9 323.894C671.053 329.175 680.54 334.112 690.049 332.144C704.968 329.044 712.056 310.954 726.093 304.995C742.808 297.907 763.256 310.295 779.756 302.715C787.63 299.09 792.879 291.615 798.612 285.115C804.345 278.615 811.939 272.444 820.587 273.036" stroke="#171717" stroke-width="3.227" stroke-linecap="round" stroke-linejoin="round"/>
<path d="M572.478 611.212C575.92 630.003 574.834 627.112 579.954 645.512" stroke="#171717" stroke-width="3.227" stroke-linecap="round" stroke-linejoin="round"/>
<path d="M709.094 426.494C707.448 421.939 705.803 417.384 704.157 412.828" stroke="#171717" stroke-width="3.227" stroke-linecap="round" stroke-linejoin="round"/>
<path d="M751.069 430.166C755.169 422.044 763.33 416.666 771.826 413.413C780.322 410.16 789.378 408.661 798.098 406.062C806.818 403.463 815.517 399.523 821.357 392.546" stroke="#171717" stroke-width="3.227" stroke-linecap="round" stroke-linejoin="round"/>
<path fill-rule="evenodd" clip-rule="evenodd" d="M270.446 556.861C291.4 546.484 307.641 529.594 322.7 511.384C327.073 506.093 331.349 500.69 335.612 495.304C339.461 490.439 343.3 485.588 347.19 480.846C370.219 452.761 400.39 425.536 436.714 425.236L437.314 425.036C430.868 406.011 421.486 388.112 409.509 371.986C438.223 369.833 465.83 359.999 489.438 343.514C495.995 338.952 502.187 333.889 507.96 328.369L508.068 328.477C520.04 346.252 524.256 368.802 520.524 389.852L521.137 389.917C550.631 372.395 562.323 331.844 550.319 299.705C538.315 267.566 505.961 245.258 471.896 241.127C437.831 236.996 403.002 249.473 376.155 270.846C349.308 292.219 329.915 321.842 316.394 353.368C311.778 364.129 307.797 375.153 303.817 386.175C298.755 400.192 293.695 414.205 287.331 427.668C280.006 443.157 270.626 458.162 258.59 470.209C251.984 476.918 244.41 482.6 236.12 487.064C221.578 494.784 205.372 498 189.118 501.225C177.18 503.594 165.216 505.968 153.867 510.136C127.18 519.935 105.259 539.285 88.7272 562.68C81.8079 572.497 75.8025 582.928 70.7862 593.841C53.8772 630.477 46.8752 670.769 40.0342 710.535L41.6472 711.149C50.7472 687.194 59.9652 663.1 73.4142 641.287C81.0117 628.728 90.2864 617.264 100.982 607.211C109.165 599.567 118.424 593.164 128.464 588.205C150.266 577.614 174.694 575.159 199.116 572.706C223.805 570.225 248.487 567.746 270.446 556.861ZM510.97 264.508C488.149 249.812 458.668 247.666 432.84 255.447C407.011 263.228 384.679 280.175 367.278 300.571C366.7 301.249 366.781 302.267 367.459 302.845C368.137 303.424 369.155 303.343 369.733 302.665C386.844 282.609 408.681 266.095 433.771 258.537C458.864 250.978 487.334 253.126 509.223 267.221C531.118 281.321 545.035 308.122 540.945 333.657C540.804 334.537 541.403 335.364 542.283 335.505C543.163 335.646 543.99 335.047 544.131 334.167C548.452 307.192 533.785 279.201 510.97 264.508Z" fill="#171717"/>
<path fill-rule="evenodd" clip-rule="evenodd" d="M806.534 129.461C797.378 123.342 786.614 120.075 775.601 120.074C768.289 120.073 761.048 121.512 754.292 124.31C747.537 127.107 741.398 131.208 736.227 136.377C731.056 141.547 726.954 147.685 724.156 154.44C721.357 161.196 719.916 168.436 719.916 175.748C719.915 186.761 723.179 197.526 729.297 206.683C735.414 215.841 744.109 222.978 754.283 227.194C764.457 231.409 775.652 232.513 786.453 230.365C797.254 228.218 807.176 222.916 814.964 215.13C822.752 207.344 828.056 197.423 830.205 186.622C832.355 175.821 831.253 164.626 827.04 154.451C822.826 144.277 815.69 135.58 806.534 129.461ZM779.228 126.673C770.051 125.88 760.841 127.75 752.7 132.058C751.913 132.474 751.612 133.451 752.029 134.239C752.446 135.026 753.422 135.327 754.21 134.91C761.802 130.892 770.392 129.149 778.95 129.888C787.508 130.627 795.672 133.817 802.463 139.077C809.254 144.337 814.385 151.443 817.241 159.545C820.097 167.646 820.557 176.399 818.566 184.755C818.359 185.622 818.894 186.492 819.761 186.698C820.628 186.905 821.498 186.37 821.705 185.503C823.84 176.543 823.347 167.158 820.284 158.472C817.222 149.785 811.721 142.166 804.439 136.526C797.157 130.886 788.404 127.465 779.228 126.673Z" fill="#171717"/>
<path d="M255.232 628.176C222.045 565.467 176.719 509.983 121.891 464.953" stroke="#171717" stroke-width="3.227" stroke-linecap="round" stroke-linejoin="round"/>
<path d="M159.449 498.708C158.591 491.566 159.164 484.325 161.135 477.407C163.106 470.49 166.435 464.034 170.927 458.416" stroke="#171717" stroke-width="3.227" stroke-linecap="round" stroke-linejoin="round"/>
<path d="M157.2 499.012C148.836 496.385 140.029 495.472 131.304 496.328C122.58 497.184 114.117 499.791 106.424 503.994" stroke="#171717" stroke-width="3.227" stroke-linecap="round" stroke-linejoin="round"/>
<path d="M246.601 613.217C257.273 588.158 275.402 566.994 298.525 552.601" stroke="#171717" stroke-width="3.227" stroke-linecap="round" stroke-linejoin="round"/>
<path d="M245.406 613.248C217.74 604.693 185.948 610.98 163.622 629.423" stroke="#171717" stroke-width="3.227" stroke-linecap="round" stroke-linejoin="round"/>
<path d="M164.487 735.266C142.447 725.459 119.246 718.505 95.4443 714.575" stroke="#171717" stroke-width="3.227" stroke-linecap="round" stroke-linejoin="round"/>
<path d="M185.707 761.248C172.661 767.324 160.795 775.663 150.66 785.88" stroke="#171717" stroke-width="3.227" stroke-linecap="round" stroke-linejoin="round"/>
<path d="M231.841 806.724C222.664 814.606 214.523 823.621 207.613 833.552L208.58 833.194" stroke="#171717" stroke-width="3.227" stroke-linecap="round" stroke-linejoin="round"/>
<path d="M302.253 844.82C295.004 850.11 288.96 856.88 284.522 864.68" stroke="#171717" stroke-width="3.227" stroke-linecap="round" stroke-linejoin="round"/>
<path d="M532.345 784.208C582.629 781.671 631.783 768.372 676.486 745.208C743.186 710.579 798.173 654.856 868.009 627.092" stroke="url(#paint7_linear_46_7775)" stroke-width="3.227" stroke-linecap="round" stroke-linejoin="round"/>
<path d="M771.659 681.74C782.966 661.904 796.994 643.748 813.334 627.801" stroke="url(#paint8_linear_46_7775)" stroke-width="3.227" stroke-linecap="round" stroke-linejoin="round"/>
<path d="M772.494 682.243L833.242 683.343" stroke="url(#paint9_linear_46_7775)" stroke-width="3.227" stroke-linecap="round" stroke-linejoin="round"/>
<path d="M718.427 720.675L781.434 724.65" stroke="url(#paint10_linear_46_7775)" stroke-width="3.227" stroke-linecap="round" stroke-linejoin="round"/>
<path d="M622.73 767.436C654.889 767.237 686.931 771.3 718.022 779.518" stroke="url(#paint11_linear_46_7775)" stroke-width="3.227" stroke-linecap="round" stroke-linejoin="round"/>
<path d="M620.36 767.4L648.475 730.213" stroke="url(#paint12_linear_46_7775)" stroke-width="3.227" stroke-linecap="round" stroke-linejoin="round"/>
<path d="M718.427 720.675C720.199 717.132 718.144 712.552 719.915 709.009" stroke="url(#paint13_linear_46_7775)" stroke-width="3.227" stroke-linecap="round" stroke-linejoin="round"/>
<path d="M801.773 101.994C802.44 92.1182 803.109 82.2419 803.781 72.3652" stroke="#171717" stroke-width="3.227" stroke-linecap="round" stroke-linejoin="round"/>
<path d="M834.061 121L866.837 71.8594" stroke="#171717" stroke-width="3.227" stroke-linecap="round" stroke-linejoin="round"/>
<path d="M852.787 151.01L897.198 150.525" stroke="#171717" stroke-width="3.227" stroke-linecap="round" stroke-linejoin="round"/>
<path d="M627.211 199.9L633.711 177.026" stroke="#171717" stroke-width="3.227" stroke-linecap="round" stroke-linejoin="round"/>
<path d="M642.091 190.812L620.452 180.562" stroke="#171717" stroke-width="3.227" stroke-linecap="round" stroke-linejoin="round"/>
<path d="M560.216 201.178C567.777 192.541 573.072 182.159 575.625 170.968C576.405 167.527 576.525 163.117 573.468 161.352C571.362 160.136 568.55 160.887 566.753 162.525C565.059 164.285 563.832 166.441 563.183 168.796C559.552 179.421 558.896 190.836 561.283 201.808C559.39 192.397 555.401 183.533 549.614 175.874C547.171 172.648 543.462 169.351 539.582 170.502C536.924 171.29 535.222 174.084 535.02 176.848C534.972 179.637 535.721 182.381 537.18 184.759C539.42 188.809 542.48 192.348 546.165 195.15C549.85 197.952 554.078 199.955 558.58 201.031C554.323 200.311 549.959 200.542 545.801 201.707C541.644 202.872 537.795 204.942 534.532 207.77C531.295 210.616 528.738 215.835 531.707 218.959C533.866 221.23 537.583 220.786 540.553 219.787C549.425 216.758 556.819 210.48 561.247 202.217" stroke="#171717" stroke-width="3.227" stroke-linecap="round" stroke-linejoin="round"/>
<path d="M257.949 358.618C260.198 355.351 261.916 350.363 258.816 347.889C256.046 345.678 251.96 347.641 249.244 349.918C240.953 356.919 235.341 366.576 233.363 377.247C234.747 365.94 233.532 354.467 229.81 343.701C228.426 339.709 225.496 335.109 221.319 335.744C216.746 336.439 215.649 342.559 216.278 347.144C217.858 358.418 222.987 368.896 230.921 377.06C225.444 369.574 213.594 367.821 206.185 373.401C203.695 375.14 201.951 377.753 201.301 380.721C200.793 383.682 202.02 387.029 204.654 388.474C206.954 389.737 209.785 389.389 212.349 388.821C230.017 384.901 247.7 373.511 257.949 358.618Z" stroke="#171717" stroke-width="3.227" stroke-linecap="round" stroke-linejoin="round"/>
<path d="M913.201 521.059C914.101 516.859 909.443 513.586 905.263 512.587C897.876 510.821 890.143 512.067 882.652 513.32C888.199 507.246 892.411 500.076 895.016 492.272C896.073 489.097 896.206 484.535 893.016 483.521C890.488 482.716 888.088 485.004 886.573 487.182C881.472 494.538 878.517 503.167 878.039 512.105C877.816 509.033 876.944 506.044 875.48 503.334C874.016 500.624 871.992 498.256 869.545 496.386C868.108 495.303 866.322 494.366 864.575 494.798C853.215 497.61 875.034 518.437 879.452 521.187C885.958 525.235 910.651 533.009 913.201 521.059Z" stroke="#171717" stroke-width="3.227" stroke-linecap="round" stroke-linejoin="round"/>
<path d="M817.666 497.356L803.366 482.056" stroke="#171717" stroke-width="3.227" stroke-linecap="round" stroke-linejoin="round"/>
<path d="M803.49 497.985C808.512 492.613 812.59 486.431 815.553 479.7" stroke="#171717" stroke-width="3.227" stroke-linecap="round" stroke-linejoin="round"/>
<path d="M479.219 194.237L467.828 179.054" stroke="#171717" stroke-width="3.227" stroke-linecap="round" stroke-linejoin="round"/>
<path d="M464.642 191.801L477.416 178.011" stroke="#171717" stroke-width="3.227" stroke-linecap="round" stroke-linejoin="round"/>
<path d="M269.843 337.707C269.202 332.65 267.576 327.768 265.055 323.338" stroke="#171717" stroke-width="3.227" stroke-linecap="round" stroke-linejoin="round"/>
<path d="M260.563 331.656L270.434 327.1" stroke="#171717" stroke-width="3.227" stroke-linecap="round" stroke-linejoin="round"/>
<path d="M877.022 470.535L885.328 462.892" stroke="#171717" stroke-width="3.227" stroke-linecap="round" stroke-linejoin="round"/>
<path d="M884.674 472.877L875.563 462.247" stroke="#171717" stroke-width="3.227" stroke-linecap="round" stroke-linejoin="round"/>
<path d="M83.6445 403.451C109.486 402.647 135.169 407.769 158.725 418.425" stroke="#171717" stroke-width="3.227" stroke-linecap="round" stroke-linejoin="round"/>
<path d="M169.442 859.357C141.372 843.706 117.164 821.967 98.5938 795.736" stroke="#171717" stroke-width="3.227" stroke-linecap="round" stroke-linejoin="round"/>
<path d="M705.051 854.24C749.92 829.987 790.522 798.561 825.251 761.206" stroke="#171717" stroke-width="3.227" stroke-linecap="round" stroke-linejoin="round"/>
<path d="M598.522 334.446C608.69 327.577 617.543 318.938 624.659 308.941C626.379 306.523 628.058 303.541 627.074 300.741C625.934 297.516 621.622 296.418 618.409 297.592C615.196 298.766 612.857 301.507 610.67 304.138" stroke="#171717" stroke-width="3.227" stroke-linecap="round" stroke-linejoin="round"/>
<path d="M610.012 303.847C608.272 299.563 606.384 295.077 602.741 292.23C599.098 289.383 593.126 288.955 590.254 292.579C587.869 295.59 588.498 299.915 589.299 303.671C591.499 313.965 594.084 324.165 597.056 334.271" stroke="#171717" stroke-width="3.227" stroke-linecap="round" stroke-linejoin="round"/>
<path d="M357.77 206.524C359.325 176.981 338.634 147.464 310.085 139.711C281.536 131.958 248.246 147.539 236.71 174.781C225.174 202.023 237.728 237.353 264.254 250.452C272.517 254.532 284.783 255.289 288.797 246.994C292.334 239.685 286.547 231.434 280.856 225.642C271.069 215.683 257.088 205.903 244.214 211.31C236.28 214.642 231.528 223.003 229.514 231.369C227.5 239.735 227.644 248.463 226.32 256.969C223.803 273.131 215.39 288.83 201.658 297.717C187.926 306.604 168.684 307.455 155.54 297.717C147.346 291.648 142.54 278.3 150.274 271.649C155.944 266.77 165.462 269.026 170.074 274.917C174.686 280.808 175.197 289.024 173.689 296.35C168.7 320.577 141.244 337.583 117.331 331.259" stroke="#171717" stroke-width="3.227" stroke-linecap="round" stroke-linejoin="round"/>
<path d="M693.17 463.163C720.429 466.876 746.718 475.805 770.6 489.463" stroke="#171717" stroke-width="3.227" stroke-linecap="round" stroke-linejoin="round"/>
<path d="M581.642 752.3C578.72 739.473 572.924 727.476 564.69 717.215C556.457 706.954 546.001 698.696 534.111 693.063" stroke="#171717" stroke-width="3.227" stroke-linecap="round" stroke-linejoin="round"/>
<path d="M425.813 525.461L437.461 518.797" stroke="#171717" stroke-width="3.227" stroke-linecap="round" stroke-linejoin="round"/>
<path d="M432.186 541.261L442.814 534.804" stroke="#171717" stroke-width="3.227" stroke-linecap="round" stroke-linejoin="round"/>
<path d="M442.337 558.228L449.57 550.654" stroke="#171717" stroke-width="3.227" stroke-linecap="round" stroke-linejoin="round"/>
<path d="M452.7 574.26C455.005 569.19 457.675 564.294 460.69 559.61" stroke="#171717" stroke-width="3.227" stroke-linecap="round" stroke-linejoin="round"/>
<path d="M471.317 583.737L474 562.812" stroke="#171717" stroke-width="3.227" stroke-linecap="round" stroke-linejoin="round"/>
<path d="M492.65 577.236C490.85 571.169 489.05 565.103 487.25 559.036" stroke="#171717" stroke-width="3.227" stroke-linecap="round" stroke-linejoin="round"/>
<path d="M496.286 549.239L509.173 555.355" stroke="#171717" stroke-width="3.227" stroke-linecap="round" stroke-linejoin="round"/>
<path d="M500.491 534.763C504.926 533.473 509.571 533.063 514.163 533.556" stroke="#171717" stroke-width="3.227" stroke-linecap="round" stroke-linejoin="round"/>
<path d="M497.85 519.615C503.443 517.411 509.287 515.906 515.25 515.135C515.151 515.183 515.043 515.208 514.933 515.208C514.824 515.207 514.716 515.181 514.618 515.131C514.52 515.082 514.435 515.011 514.369 514.923C514.303 514.835 514.259 514.733 514.24 514.625" stroke="#171717" stroke-width="3.227" stroke-linecap="round" stroke-linejoin="round"/>
<path d="M491.322 502.333C498.425 499.793 505.863 498.311 513.396 497.933" stroke="#171717" stroke-width="3.227" stroke-linecap="round" stroke-linejoin="round"/>
<path d="M579.381 743.814C585.434 740.254 591.301 736.386 596.959 732.226" stroke="#171717" stroke-width="3.227" stroke-linecap="round" stroke-linejoin="round"/>
<path d="M574.087 730.933C580.385 727.512 586.495 723.757 592.393 719.686" stroke="#171717" stroke-width="3.227" stroke-linecap="round" stroke-linejoin="round"/>
<path d="M565.732 717.267L582.518 707.538" stroke="#171717" stroke-width="3.227" stroke-linecap="round" stroke-linejoin="round"/>
<path d="M555.483 707.024L572.192 696.782" stroke="#171717" stroke-width="3.227" stroke-linecap="round" stroke-linejoin="round"/>
<path d="M545.3 698.392L558.928 688.092" stroke="#171717" stroke-width="3.227" stroke-linecap="round" stroke-linejoin="round"/>
<path d="M755.221 481.229C756.327 475.727 756.963 470.14 757.121 464.529" stroke="#171717" stroke-width="3.227" stroke-linecap="round" stroke-linejoin="round"/>
<path d="M740.422 475.156C741.947 468.41 742.954 461.556 743.435 454.656" stroke="#171717" stroke-width="3.227" stroke-linecap="round" stroke-linejoin="round"/>
<path d="M723.315 469.077C724.729 462.629 726.144 456.18 727.558 449.731" stroke="#171717" stroke-width="3.227" stroke-linecap="round" stroke-linejoin="round"/>
<path d="M708.169 465.669C709.617 459.609 711.065 453.548 712.512 447.487" stroke="#171717" stroke-width="3.227" stroke-linecap="round" stroke-linejoin="round"/>
<path d="M698.955 463.752C699.841 458.69 700.727 453.629 701.612 448.567" stroke="#171717" stroke-width="3.227" stroke-linecap="round" stroke-linejoin="round"/>
<path d="M412.873 658.456C409.946 654.674 407.019 650.89 404.091 647.106" stroke="#171717" stroke-width="3.227" stroke-linecap="round" stroke-linejoin="round"/>
<path d="M492.06 671.77L498.479 656.57" stroke="#171717" stroke-width="3.227" stroke-linecap="round" stroke-linejoin="round"/>
<path d="M443.846 709.882L434.853 703.638" stroke="#171717" stroke-width="3.227" stroke-linecap="round" stroke-linejoin="round"/>
<path d="M511.158 751.162C512.807 746.988 514.456 742.813 516.104 738.639" stroke="#171717" stroke-width="3.227" stroke-linecap="round" stroke-linejoin="round"/>
<path d="M424.48 785.809C420.142 782.729 416.333 778.966 413.2 774.666" stroke="#171717" stroke-width="3.227" stroke-linecap="round" stroke-linejoin="round"/>
<path d="M340.192 761.323L348.961 750.344" stroke="#171717" stroke-width="3.227" stroke-linecap="round" stroke-linejoin="round"/>
<path d="M291.306 739.006L282.616 731.743" stroke="#171717" stroke-width="3.227" stroke-linecap="round" stroke-linejoin="round"/>
<path d="M253.561 711.178L260.049 700.95" stroke="#171717" stroke-width="3.227" stroke-linecap="round" stroke-linejoin="round"/>
<path d="M288.67 640.278L273.864 626.611" stroke="#171717" stroke-width="3.227" stroke-linecap="round" stroke-linejoin="round"/>
<path d="M329.96 573.423L339.066 561.271" stroke="#171717" stroke-width="3.227" stroke-linecap="round" stroke-linejoin="round"/>
<path d="M593.4 576.605L581.8 563.542" stroke="#171717" stroke-width="3.227" stroke-linecap="round" stroke-linejoin="round"/>
<path d="M608.723 652.85L617.058 641.45" stroke="#171717" stroke-width="3.227" stroke-linecap="round" stroke-linejoin="round"/>
<path d="M681.601 650.531C680.187 647.243 677.948 644.376 675.101 642.208" stroke="#171717" stroke-width="3.227" stroke-linecap="round" stroke-linejoin="round"/>
<path d="M729.786 639.915L737.758 630.804" stroke="#171717" stroke-width="3.227" stroke-linecap="round" stroke-linejoin="round"/>
<path d="M721.812 598.157C718.863 595.776 716.238 593.019 714.004 589.957" stroke="#171717" stroke-width="3.227" stroke-linecap="round" stroke-linejoin="round"/>
<path d="M742.658 556.746L750.244 548.009" stroke="#171717" stroke-width="3.227" stroke-linecap="round" stroke-linejoin="round"/>
<path d="M724.615 512.973L715.327 503.66" stroke="#171717" stroke-width="3.227" stroke-linecap="round" stroke-linejoin="round"/>
<path d="M563.877 582.2L557.719 589.724" stroke="#171717" stroke-width="3.227" stroke-linecap="round" stroke-linejoin="round"/>
<path d="M500.236 775.57C497.082 773.571 494.333 770.995 492.136 767.977" stroke="#171717" stroke-width="3.227" stroke-linecap="round" stroke-linejoin="round"/>
<path d="M446.158 764.493L454.179 753.301" stroke="#171717" stroke-width="3.227" stroke-linecap="round" stroke-linejoin="round"/>
<path d="M364.082 800.869L353.454 792.769" stroke="#171717" stroke-width="3.227" stroke-linecap="round" stroke-linejoin="round"/>
<path d="M284.142 682.391L273.517 672.263" stroke="#171717" stroke-width="3.227" stroke-linecap="round" stroke-linejoin="round"/>
<path d="M380.261 549.323L371.661 541.723" stroke="#171717" stroke-width="3.227" stroke-linecap="round" stroke-linejoin="round"/>
<path d="M385.841 682.434C383.148 685.609 379.844 688.21 376.124 690.082C376.108 690.004 376.117 689.923 376.15 689.85C376.184 689.778 376.24 689.719 376.311 689.682C376.381 689.644 376.462 689.631 376.54 689.644C376.619 689.657 376.691 689.695 376.746 689.753C376.801 689.811 376.835 689.885 376.844 689.964C376.853 690.043 376.835 690.123 376.795 690.192C376.754 690.26 376.692 690.313 376.618 690.343C376.544 690.373 376.462 690.378 376.385 690.357" stroke="#171717" stroke-width="3.227" stroke-linecap="round" stroke-linejoin="round"/>
<path d="M546.218 666.869L536.618 660.769" stroke="#171717" stroke-width="3.227" stroke-linecap="round" stroke-linejoin="round"/>
<path d="M458.684 611.034L464.771 601.425" stroke="#171717" stroke-width="3.227" stroke-linecap="round" stroke-linejoin="round"/>
<path d="M527.541 594.407L518.072 588.707L519.572 587.955" stroke="#171717" stroke-width="3.227" stroke-linecap="round" stroke-linejoin="round"/>
<path d="M366.519 628.7L374.001 620.5" stroke="#171717" stroke-width="3.227" stroke-linecap="round" stroke-linejoin="round"/>
<g opacity="0.1">
<path d="M70.9481 425.583C69.7881 436.383 70.3371 447.202 71.2161 458.007C72.1161 469.007 72.3011 479.834 73.7971 490.816C76.7998 512.309 81.3961 533.549 87.5481 554.36C91.2231 566.968 111.087 561.55 107.255 548.927C101.113 528.487 96.0213 507.746 92.0001 486.784C90.0241 476.63 87.3351 466.345 86.1181 456.104C84.8471 445.419 83.8901 434.681 81.9051 424.104C80.6551 417.44 71.5671 419.826 70.9481 425.587V425.583Z" fill="#171717"/>
</g>
<g opacity="0.1">
<path d="M97.9001 608.763C103.3 624.463 111.328 639.483 118.719 654.318C126.059 669.049 133.681 683.648 141.94 697.887C157.712 725.082 175.74 751.181 197.232 774.199C237.505 817.337 291.188 849.438 351.348 851.324C367.7 851.903 384.048 850.075 399.868 845.899C415.583 841.645 432.747 834.345 444.087 822.32C448.93 817.185 444.187 806.492 436.608 809.471C423.937 814.45 412.008 820.621 398.841 824.333C386.249 827.961 373.246 829.966 360.146 830.299C333.285 830.76 306.702 824.809 282.6 812.941C231.389 787.932 193.563 743.228 164.639 695.19C155.683 680.315 147.398 665.037 139.479 649.59C131.327 633.69 124.368 616.755 114.86 601.612C109.491 593.061 94.3431 598.423 97.8961 608.764L97.9001 608.763Z" fill="#171717"/>
</g>
<g opacity="0.1">
<path d="M60.5343 707.924C64.4803 723.271 74.4743 736.973 83.2463 749.989C92.3584 763.435 102.287 776.309 112.975 788.539C134.242 812.988 158.728 834.739 186.316 851.824C239.343 884.663 305.856 901.172 366.985 883.313C383.166 878.595 398.64 871.726 412.992 862.891C427.217 854.076 441.482 843.391 450.861 829.347C454.501 823.896 447.061 815.985 441.561 820.047C430.343 828.333 419.861 837.603 407.591 844.366C395.8 850.948 383.29 856.149 370.307 859.866C343.807 867.342 315.816 869.887 288.478 866.126C228.918 857.932 176.056 825.026 134.93 782.259C123.34 770.063 112.468 757.204 102.371 743.746C97.1773 736.907 92.2513 729.887 87.3273 722.855C82.1273 715.429 77.5413 708.162 70.9533 701.855C66.4533 697.547 58.9703 701.84 60.5333 707.92L60.5343 707.924Z" fill="#171717"/>
</g>
<g opacity="0.1">
<path d="M505.134 333.368C499.134 338.725 492.192 343.034 485.45 347.448C479.048 351.707 472.211 355.275 465.056 358.094C450.434 363.73 435.868 365.65 420.456 362.423C418.768 362.012 416.996 362.101 415.357 362.678C413.717 363.255 412.281 364.295 411.222 365.673C410.163 367.051 409.527 368.707 409.391 370.44C409.255 372.173 409.625 373.907 410.456 375.434C413.462 381.099 417.599 386.21 421.113 391.573C424.65 396.973 428.046 402.465 431.186 408.105C437.254 419.005 442.386 430.468 445.473 442.585C448.358 453.537 449.211 464.925 447.989 476.185C447.329 481.328 446.073 486.377 444.247 491.231C442.321 496.473 436.815 502.342 437.563 508.019C438.211 512.94 441.909 516.688 447.219 515.375C454.181 513.655 457.354 505.15 459.91 499.122C462.395 493.27 464.213 487.158 465.33 480.9C467.71 467.545 467.446 453.852 464.551 440.6C461.609 426.911 456.014 413.82 449.265 401.6C445.865 395.438 442.131 389.462 438.223 383.609C433.939 377.193 429.68 370.309 424.361 364.703L418.098 379.823C435.586 378.317 452.719 374.012 468.84 367.07C476.747 363.608 484.212 359.214 491.077 353.982C497.783 348.831 502.906 342.132 507.711 335.356C508.838 333.767 506.455 332.189 505.134 333.368Z" fill="#171717"/>
</g>
<g opacity="0.1">
<path d="M242.232 657.326C236.79 669.768 236.456 682.834 238.238 696.145C240.12 710.206 243.645 724.13 249.782 736.945C262.318 763.129 283.898 784.652 309.515 798.145C367.846 828.875 438.855 821.26 498.035 797.345C533.675 782.945 566.723 763.406 598.935 742.582C610.699 734.975 599.761 716.058 587.91 723.72C536.923 756.686 481.42 789.172 419.788 795.444C390.735 798.4 361.215 795.915 333.796 785.47C309.25 776.037 287.867 759.862 272.111 738.809C263.824 727.779 255.711 714.909 251.767 701.6C247.595 687.539 247.067 672.928 246.167 658.39C246.05 656.52 243.147 655.243 242.236 657.326H242.232Z" fill="#171717"/>
</g>
<g opacity="0.1">
<path d="M347.662 612.999C345.844 621.133 346.162 630.391 346.028 638.715C345.893 646.909 345.753 655.101 345.721 663.295L345.621 687.876C345.589 696.138 344.221 705.862 346.366 713.866C348.666 722.466 361.379 722.399 363.723 713.866C365.923 705.856 364.595 696.152 364.614 687.876L364.669 663.295C364.688 655.101 364.599 646.909 364.515 638.715C364.431 630.402 364.791 621.128 363.028 612.999C361.374 605.374 349.352 605.426 347.66 612.999H347.662Z" fill="#171717"/>
</g>
</g>
</g>
<defs>
<linearGradient id="paint0_linear_46_7775" x1="756.486" y1="272.647" x2="756.198" y2="416.911" gradientUnits="userSpaceOnUse">
<stop stop-color="#72DEFF"/>
<stop offset="1" stop-color="#1A9AEF"/>
</linearGradient>
<linearGradient id="paint1_linear_46_7775" x1="504.818" y1="445.695" x2="504.142" y2="817.86" gradientUnits="userSpaceOnUse">
<stop stop-color="#72DEFF"/>
<stop offset="1" stop-color="#1A9AEF"/>
</linearGradient>
<linearGradient id="paint2_linear_46_7775" x1="481.421" y1="496.535" x2="481.049" y2="636.179" gradientUnits="userSpaceOnUse">
<stop stop-color="#72DEFF"/>
<stop offset="1" stop-color="#1A9AEF"/>
</linearGradient>
<linearGradient id="paint3_linear_46_7775" x1="469.734" y1="486.229" x2="469.473" y2="583.925" gradientUnits="userSpaceOnUse">
<stop stop-color="#72DEFF"/>
<stop offset="1" stop-color="#1A9AEF"/>
</linearGradient>
<linearGradient id="paint4_linear_46_7775" x1="503.562" y1="475.847" x2="503.513" y2="496.429" gradientUnits="userSpaceOnUse">
<stop stop-color="#72DEFF"/>
<stop offset="1" stop-color="#1A9AEF"/>
</linearGradient>
<linearGradient id="paint5_linear_46_7775" x1="254.003" y1="678.151" x2="253.715" y2="885.946" gradientUnits="userSpaceOnUse">
<stop stop-color="#72DEFF"/>
<stop offset="1" stop-color="#1A9AEF"/>
</linearGradient>
<linearGradient id="paint6_linear_46_7775" x1="422.368" y1="502.049" x2="422.303" y2="518.497" gradientUnits="userSpaceOnUse">
<stop stop-color="#72DEFF"/>
<stop offset="1" stop-color="#1A9AEF"/>
</linearGradient>
<linearGradient id="paint7_linear_46_7775" x1="700.177" y1="627.092" x2="699.987" y2="783.352" gradientUnits="userSpaceOnUse">
<stop stop-color="#72DEFF"/>
<stop offset="1" stop-color="#1A9AEF"/>
</linearGradient>
<linearGradient id="paint8_linear_46_7775" x1="792.497" y1="627.801" x2="792.317" y2="681.446" gradientUnits="userSpaceOnUse">
<stop stop-color="#72DEFF"/>
<stop offset="1" stop-color="#1A9AEF"/>
</linearGradient>
<linearGradient id="paint9_linear_46_7775" x1="802.868" y1="682.243" x2="802.868" y2="683.337" gradientUnits="userSpaceOnUse">
<stop stop-color="#72DEFF"/>
<stop offset="1" stop-color="#1A9AEF"/>
</linearGradient>
<linearGradient id="paint10_linear_46_7775" x1="749.93" y1="720.675" x2="749.93" y2="724.628" gradientUnits="userSpaceOnUse">
<stop stop-color="#72DEFF"/>
<stop offset="1" stop-color="#1A9AEF"/>
</linearGradient>
<linearGradient id="paint11_linear_46_7775" x1="670.376" y1="767.429" x2="670.373" y2="779.452" gradientUnits="userSpaceOnUse">
<stop stop-color="#72DEFF"/>
<stop offset="1" stop-color="#1A9AEF"/>
</linearGradient>
<linearGradient id="paint12_linear_46_7775" x1="634.418" y1="730.213" x2="634.291" y2="767.197" gradientUnits="userSpaceOnUse">
<stop stop-color="#72DEFF"/>
<stop offset="1" stop-color="#1A9AEF"/>
</linearGradient>
<linearGradient id="paint13_linear_46_7775" x1="719.171" y1="709.009" x2="718.935" y2="720.607" gradientUnits="userSpaceOnUse">
<stop stop-color="#72DEFF"/>
<stop offset="1" stop-color="#1A9AEF"/>
</linearGradient>
<clipPath id="clip0_46_7775">
<rect width="960" height="960" fill="white"/>
</clipPath>
<clipPath id="clip1_46_7775">
<rect width="884" height="821" fill="white" transform="translate(38 70)"/>
</clipPath>
</defs>
</svg>
