<svg width="960" height="960" viewBox="0 0 960 960" fill="none" xmlns="http://www.w3.org/2000/svg">
<g clip-path="url(#clip0_583_1337)">
<path d="M520.924 303.506C520.924 303.506 612.233 308.894 609.717 262.873C607.201 216.852 573.77 183.92 586.706 167.856C588.252 165.983 590.005 164.292 591.932 162.814C601.242 155.5 616.542 149.725 630.344 148.808C641.824 148.044 652.275 150.631 657.419 158.495C670.119 177.91 711.819 275.942 665.319 314.772C618.819 353.602 562.5 367.74 562.5 367.74C562.5 367.74 585.745 474.634 555.064 483.262C553.699 483.649 552.181 484.005 550.531 484.321C515.093 491.329 417.499 485.411 417.499 485.411C417.499 485.411 405.032 486.858 403.599 478.464C402.166 470.07 428.525 367.496 400.482 361.384C372.439 355.272 320.307 348.084 345.477 403.084C365.106 445.984 370.301 459.363 359.177 468.806H359.167C356.03 471.474 351.599 473.817 345.833 476.425C335.596 481.06 329.133 483.769 324.3 484.859C316.721 486.58 313.105 484.34 305.211 479.297C292.264 471.036 228.631 406.323 263.865 347.366C299.099 288.409 340.665 291.301 377.594 290.975C397.569 290.802 446.504 303.504 446.504 303.504C446.504 303.504 443.988 287.685 447.756 286.249C448.632 285.912 452.992 285.637 459.156 285.423C469.856 285.057 485.986 284.853 498.821 284.751C510.28 284.651 519.121 284.629 519.121 284.629C519.121 284.629 523.073 284.446 522.721 288.041C522.369 291.636 520.924 303.506 520.924 303.506Z" fill="url(#paint0_linear_583_1337)"/>
<path d="M537.813 188.821C542.845 194.576 552.196 229.443 544.648 236.278C537.1 243.113 528.105 241.31 523.796 233.222C524.003 220.08 523.544 206.937 522.421 193.842H522.431C522.431 193.842 532.781 183.065 537.813 188.821Z" fill="#171717"/>
<path d="M517.338 164.168C517.817 163.312 533.585 135.453 539.076 136.686C544.648 137.949 545.198 177.899 521.454 183.063C521.454 183.063 474.903 188.463 463.576 192.587C460.55 193.698 458.819 200.696 457.912 210.352L457.036 210.271C457.036 210.271 455.508 205.147 454.143 198.862C452.228 190.112 450.619 179.101 453.868 176.595C459.44 172.276 479.751 173.539 482.268 167.427C484.785 161.315 483.531 142.257 492.342 141.544C501.153 140.831 500.603 164.544 500.603 164.544C500.603 164.544 507.082 138.661 514.986 139.027C522.757 139.375 517.532 163.292 517.338 164.168Z" fill="#171717"/>
<path d="M457.036 210.272L457.912 210.353C457.126 220.291 456.85 230.263 457.087 240.229H457.036C457.036 240.229 455.136 244.182 444.568 244.905C434 245.628 434.28 230.165 434.993 211.83C435.706 193.495 454.143 198.863 454.143 198.863C455.508 205.148 457.036 210.272 457.036 210.272Z" fill="#171717"/>
<path d="M488.206 236.278H495.031L493.238 198.528C499.532 196.098 506.38 195.475 513.009 196.728" stroke="#171717" stroke-width="3" stroke-linecap="round" stroke-linejoin="round"/>
<path d="M504.738 210.026C504.738 210.026 507.621 207.154 513.009 210.026" stroke="#171717" stroke-width="3" stroke-linecap="round" stroke-linejoin="round"/>
<path d="M482.267 209.385C481.018 208.235 479.381 207.596 477.683 207.596C475.985 207.596 474.349 208.235 473.1 209.385" stroke="#171717" stroke-width="3" stroke-linecap="round" stroke-linejoin="round"/>
<path d="M488.206 252.636C488.206 252.636 477.062 256.048 470.227 248.674" stroke="#171717" stroke-width="3" stroke-linecap="round" stroke-linejoin="round"/>
<path d="M459.084 283.368C459.084 283.368 457.413 262.168 457.084 240.229C456.847 230.263 457.123 220.291 457.909 210.353C458.816 200.697 460.547 193.699 463.573 192.588C474.9 188.463 521.451 183.064 521.451 183.064C521.451 183.064 521.909 187.332 522.418 193.841C523.541 206.936 524 220.08 523.793 233.221C523.406 246.178 521.756 257.057 517.493 258.921C505.993 263.953 502.581 260.541 501.674 265.756C500.767 270.971 498.802 283.368 498.802 283.368" stroke="#171717" stroke-width="3" stroke-linecap="round" stroke-linejoin="round"/>
<path d="M517.328 164.188C517.329 164.181 517.332 164.173 517.338 164.168C517.817 163.312 533.585 135.453 539.076 136.686C544.648 137.949 545.198 177.899 521.454 183.063" stroke="#171717" stroke-width="3" stroke-linecap="round" stroke-linejoin="round"/>
<path d="M457.036 210.271C457.036 210.271 455.508 205.147 454.143 198.862C452.228 190.112 450.619 179.101 453.868 176.595C459.44 172.276 479.751 173.539 482.268 167.427C484.785 161.315 483.531 142.257 492.342 141.544C501.153 140.831 500.603 164.544 500.603 164.544C500.603 164.544 507.082 138.661 514.986 139.027C522.758 139.374 517.533 163.291 517.339 164.167" stroke="#171717" stroke-width="3" stroke-linecap="round" stroke-linejoin="round"/>
<path d="M359.167 468.808C356.03 471.476 351.599 473.819 345.833 476.427C335.596 481.062 329.133 483.771 324.3 484.861C316.721 486.582 313.105 484.342 305.211 479.299C292.264 471.038 228.631 406.325 263.865 347.368C299.099 288.411 340.665 291.303 377.594 290.977C397.569 290.804 446.504 303.506 446.504 303.506C446.504 303.506 443.988 287.687 447.756 286.251C448.632 285.914 452.992 285.639 459.156 285.425C469.856 285.059 485.986 284.855 498.821 284.753C510.28 284.653 519.121 284.631 519.121 284.631C519.121 284.631 523.073 284.448 522.721 288.043C522.369 291.638 520.928 303.506 520.928 303.506C520.928 303.506 612.237 308.894 609.721 262.873C607.205 216.852 573.774 183.92 586.71 167.856C588.256 165.983 590.009 164.292 591.936 162.814C601.246 155.5 616.546 149.725 630.348 148.808C641.828 148.044 652.279 150.631 657.423 158.495C670.123 177.91 711.823 275.942 665.323 314.772C618.823 353.602 562.5 367.74 562.5 367.74C562.5 367.74 585.745 474.634 555.064 483.262C553.699 483.649 552.181 484.005 550.531 484.321C515.093 491.329 417.499 485.411 417.499 485.411C417.499 485.411 405.032 486.858 403.599 478.464C402.166 470.07 428.525 367.496 400.482 361.384C372.439 355.272 320.307 348.084 345.477 403.084C365.106 445.984 370.301 459.363 359.177 468.806" stroke="#171717" stroke-width="3" stroke-linecap="round" stroke-linejoin="round"/>
<path d="M233.918 655.215C245.55 683.003 273.226 744.742 360.218 746.422C414.093 747.461 446.21 730.837 464.301 715.422C479.539 702.444 484.846 690.333 484.846 690.333" stroke="#171717" stroke-width="3" stroke-linecap="round" stroke-linejoin="round"/>
<path d="M417.5 485.41C417.5 485.41 434.033 580.57 388.979 610.761C343.925 640.952 305.564 622.751 287.351 595.421C282.544 588.209 275.637 587.007 268.232 589.493C247.584 596.419 223.127 632 229.832 645.761C230.952 648.061 232.277 651.303 233.906 655.214" stroke="#171717" stroke-width="3" stroke-linecap="round" stroke-linejoin="round"/>
<path d="M550.535 484.32C550.535 484.32 629.254 591.01 607.201 671.064C585.148 751.118 540.93 848.528 516.962 855.709C497.669 861.495 466.886 854.558 452.362 843.883C448.837 841.283 446.27 838.483 445.062 835.583C438.833 820.719 464.3 715.425 464.3 715.425" stroke="#171717" stroke-width="3" stroke-linecap="round" stroke-linejoin="round"/>
<path d="M268.235 589.5V589.49C268.082 588.919 262.215 566.408 245.897 574.567C229.354 582.838 172.189 610.524 170.397 632.812C168.605 655.1 172.913 675.156 188.366 671.061C203.819 666.966 206.477 650.281 233.908 655.211H233.919" stroke="#171717" stroke-width="3" stroke-linecap="round" stroke-linejoin="round"/>
<path d="M452.371 843.873L452.361 843.883C451.984 844.453 439.434 863.593 447.461 877.762C455.61 892.145 505.94 930.017 548.121 918.028C590.302 906.039 563.462 891.188 563.462 891.188C563.462 891.188 520.802 874.411 516.962 855.709" stroke="#171717" stroke-width="3" stroke-linecap="round" stroke-linejoin="round"/>
<path d="M613.3 133.05C612.984 131.797 605.568 101.626 613.31 98.3362C621.224 94.9842 630.331 148.676 630.331 148.676" stroke="#171717" stroke-width="3" stroke-linecap="round" stroke-linejoin="round"/>
<path d="M604.685 140.282C604.685 140.282 604.573 140.038 604.369 139.59C604.269 139.366 604.145 139.08 603.992 138.754C600.662 131.308 586.692 98.9671 593.898 96.4211C601.898 93.5991 612.898 131.621 613.298 133.05C613.303 133.063 613.307 133.077 613.308 133.091" stroke="#171717" stroke-width="3" stroke-linecap="round" stroke-linejoin="round"/>
<path d="M591.932 162.814C591.932 162.814 562.738 144.275 568.493 136.646C574.248 129.017 593.185 147.229 593.185 147.229C593.185 147.229 569.217 103.856 577.366 100.739C584.588 97.9787 600.466 131.176 603.992 138.754" stroke="#171717" stroke-width="3" stroke-linecap="round" stroke-linejoin="round"/>
<path d="M339.844 493.081C339.852 493.091 339.859 493.101 339.864 493.112C340.496 494.385 361.306 536.112 354.227 537.595C347.035 539.103 324.3 484.861 324.3 484.861" stroke="#171717" stroke-width="3" stroke-linecap="round" stroke-linejoin="round"/>
<path d="M356.356 494.71C362.549 507.229 375.656 534.834 371.961 537.421C367.235 540.731 340.661 494.506 339.861 493.111" stroke="#171717" stroke-width="3" stroke-linecap="round" stroke-linejoin="round"/>
<path d="M353.269 488.6C353.269 488.6 353.29 488.641 353.32 488.712C353.35 488.756 353.374 488.804 353.392 488.855C353.738 489.507 354.692 491.381 356.009 494.04" stroke="#171717" stroke-width="3" stroke-linecap="round" stroke-linejoin="round"/>
<path d="M356.009 494.039C354.655 491.411 353.709 489.506 353.392 488.854" stroke="#171717" stroke-width="3" stroke-linecap="round" stroke-linejoin="round"/>
<path d="M356.009 494.039C356.07 494.151 356.121 494.263 356.183 494.375C356.245 494.487 356.295 494.599 356.356 494.711" stroke="#171717" stroke-width="3" stroke-linecap="round" stroke-linejoin="round"/>
<path d="M359.166 468.807H359.176C359.808 468.735 386.587 465.853 387.056 473.187C387.535 480.623 363.088 479.421 363.088 479.421C363.088 479.421 388.737 522.569 381.545 527.357C376.055 531.014 362.477 506.526 356.355 494.71" stroke="#171717" stroke-width="3" stroke-linecap="round" stroke-linejoin="round"/>
<path d="M454.143 198.863C454.143 198.863 435.716 193.495 434.993 211.83C434.27 230.165 434.015 245.618 444.568 244.905C455.121 244.192 457.036 240.229 457.036 240.229" stroke="#171717" stroke-width="3" stroke-linecap="round" stroke-linejoin="round"/>
<path d="M522.431 193.842C522.431 193.842 532.781 183.065 537.813 188.821C542.845 194.577 552.196 229.443 544.648 236.278C537.1 243.113 528.105 241.31 523.796 233.222" stroke="#171717" stroke-width="3" stroke-linecap="round" stroke-linejoin="round"/>
<path d="M224.538 311.127C206.541 313.651 190.239 323.101 179.107 337.467C167.974 351.832 162.891 369.976 164.938 388.034C165.879 396.334 168.557 404.839 174.638 410.565C180.719 416.291 190.813 418.279 197.548 413.344C204.283 408.409 204.348 396.09 196.781 392.57C189.5 389.185 180.581 395.911 179.3 403.838C178.019 411.765 182.281 419.6 187.64 425.58C192.999 431.56 199.569 436.415 204.524 442.733C210.038 449.765 213.386 458.954 211.654 467.721C209.922 476.488 202.218 484.264 193.282 484.315C184.346 484.366 176.101 474.964 178.77 466.435L180.457 467.435" stroke="#171717" stroke-width="3" stroke-linecap="round" stroke-linejoin="round"/>
<path d="M249.83 435.606C243.365 426.385 239.006 415.855 237.061 404.762C235.117 393.669 235.634 382.285 238.577 371.414" stroke="#171717" stroke-width="3" stroke-linecap="round" stroke-linejoin="round"/>
<path d="M626.418 686.016C641.248 663.544 641.63 632.398 627.357 609.568" stroke="#171717" stroke-width="3" stroke-linecap="round" stroke-linejoin="round"/>
<path d="M445.42 199.622C443.381 189.122 441.332 178.422 442.583 167.797C443.834 157.172 448.94 146.451 458.19 141.08C465.028 137.109 473.232 136.472 481.121 135.927L510.329 133.909C513.481 133.691 516.846 133.519 519.587 135.092C523.85 137.539 524.934 143.092 525.58 147.967C527.354 161.331 529.128 174.693 530.9 188.054" stroke="#171717" stroke-width="3" stroke-linecap="round" stroke-linejoin="round"/>
<path d="M442.861 243.473C422.817 267.317 424.513 306.473 446.544 328.495C454.872 336.819 465.333 342.626 474.613 349.874C483.893 357.122 492.399 366.615 494.178 378.255C496.424 392.955 487.535 407.149 487.113 422.01C486.541 442.177 502.755 460.423 522.155 465.96C541.555 471.497 562.869 466.012 579.886 455.176C587.986 450.018 595.576 443.363 599.358 434.535C603.14 425.707 602.251 414.384 595.265 407.793C588.279 401.202 574.999 402.008 570.499 410.493C570.297 410.412 570.075 410.398 569.864 410.453C569.654 410.507 569.466 410.627 569.328 410.795C569.19 410.963 569.109 411.17 569.096 411.388C569.084 411.605 569.141 411.82 569.259 412.003C569.377 412.186 569.55 412.326 569.753 412.404C569.956 412.482 570.178 412.493 570.388 412.437C570.598 412.38 570.785 412.258 570.921 412.088C571.057 411.918 571.136 411.71 571.145 411.493" stroke="#171717" stroke-width="3" stroke-linecap="round" stroke-linejoin="round"/>
<path d="M532.591 238.045C537.624 247.991 540.042 259.054 539.62 270.192C539.197 281.331 535.946 292.178 530.174 301.714C523.585 312.33 514.1 320.761 505.58 329.9C497.06 339.039 489.175 349.555 487.061 361.87" stroke="#171717" stroke-width="3" stroke-linecap="round" stroke-linejoin="round"/>
<path d="M738.628 146.59C720.584 165.505 720.656 198.766 738.782 217.603C743.803 222.821 750.282 227.08 757.501 227.65C764.72 228.22 772.571 224.259 774.841 217.382C777.111 210.505 771.709 201.743 764.476 202.082C757.638 202.4 753.061 210.027 753.417 216.863C753.773 223.699 757.584 229.799 761.16 235.635C769.326 248.958 776.934 262.851 780.885 277.97C784.836 293.089 784.869 309.679 778.251 323.834C775.522 329.67 771.505 335.176 765.793 338.153C760.081 341.13 752.462 341.019 747.715 336.664C745.374 334.517 743.914 331.578 743.617 328.416C743.32 325.253 744.208 322.093 746.108 319.549C748.009 317.004 750.787 315.255 753.903 314.642C757.02 314.029 760.253 314.595 762.975 316.231" stroke="#171717" stroke-width="3" stroke-linecap="round" stroke-linejoin="round"/>
<path d="M682.981 323.884C707.071 307.165 718.658 274.366 710.417 246.225" stroke="#171717" stroke-width="3" stroke-linecap="round" stroke-linejoin="round"/>
<path d="M768.054 179.342L776.622 165.285" stroke="#171717" stroke-width="3" stroke-linecap="round" stroke-linejoin="round"/>
<path d="M777.939 176.351C773.558 175.159 769.754 172.428 767.224 168.658" stroke="#171717" stroke-width="3" stroke-linecap="round" stroke-linejoin="round"/>
<path d="M801.7 327.23L813.563 316.445" stroke="#171717" stroke-width="3" stroke-linecap="round" stroke-linejoin="round"/>
<path d="M811.4 327.235C807.052 324.339 803.673 320.204 801.7 315.365" stroke="#171717" stroke-width="3" stroke-linecap="round" stroke-linejoin="round"/>
<path d="M536.274 112.534L548.111 94.1816" stroke="#171717" stroke-width="3" stroke-linecap="round" stroke-linejoin="round"/>
<path d="M517.611 108.287L517.542 40.3379" stroke="#171717" stroke-width="3" stroke-linecap="round" stroke-linejoin="round"/>
<path d="M498.719 109.283L484.899 94.0059" stroke="#171717" stroke-width="3" stroke-linecap="round" stroke-linejoin="round"/>
<path d="M349.791 174.077L351.948 161.135" stroke="#171717" stroke-width="3" stroke-linecap="round" stroke-linejoin="round"/>
<path d="M357.407 168.412L344.45 165.236" stroke="#171717" stroke-width="3" stroke-linecap="round" stroke-linejoin="round"/>
<path d="M224.088 653.901C219.517 647.447 217.003 639.763 216.876 631.855" stroke="#171717" stroke-width="3" stroke-linecap="round" stroke-linejoin="round"/>
<path d="M207.448 659.461C202.998 654.115 200.461 647.435 200.239 640.482" stroke="#171717" stroke-width="3" stroke-linecap="round" stroke-linejoin="round"/>
<path d="M539.49 880.582C529.541 881.246 519.786 883.65 510.667 887.682" stroke="#171717" stroke-width="3" stroke-linecap="round" stroke-linejoin="round"/>
<path d="M522.248 867.859C515.072 868.342 508.062 870.241 501.623 873.446" stroke="#171717" stroke-width="3" stroke-linecap="round" stroke-linejoin="round"/>
<path d="M282.252 749.422C310.85 764.041 343.355 769.194 375.073 764.135" stroke="#171717" stroke-width="3" stroke-linecap="round" stroke-linejoin="round"/>
<path d="M230.8 340.175L238.1 329.105" stroke="#171717" stroke-width="3" stroke-linecap="round" stroke-linejoin="round"/>
<path d="M238.635 339.873L230.095 330.445" stroke="#171717" stroke-width="3" stroke-linecap="round" stroke-linejoin="round"/>
<path d="M149.248 432.944C150.414 428.795 152.065 424.798 154.167 421.035" stroke="#171717" stroke-width="3" stroke-linecap="round" stroke-linejoin="round"/>
<path d="M155.212 430.543L145.84 424.71L146.309 424.297" stroke="#171717" stroke-width="3" stroke-linecap="round" stroke-linejoin="round"/>
<path d="M257.472 237.316C256.106 237.02 254.685 237.118 253.372 237.598C252.059 238.077 250.91 238.919 250.056 240.025C249.247 241.165 248.844 242.543 248.911 243.938C248.978 245.334 249.51 246.667 250.424 247.725C251.402 248.719 252.725 249.299 254.119 249.342C255.513 249.386 256.87 248.891 257.908 247.96C258.562 247.218 259.04 246.338 259.306 245.386C259.572 244.433 259.619 243.433 259.445 242.46C259.08 240.518 258.408 238.646 257.454 236.916C252.073 225.917 245.966 215.288 239.173 205.1C242.218 206.398 245.538 206.917 248.834 206.61C252.13 206.304 255.298 205.181 258.052 203.344C260.805 201.508 263.058 199.014 264.607 196.088C266.156 193.163 266.952 189.898 266.924 186.588C274.57 199.118 282.224 211.659 289.015 224.671C290.167 226.878 291.321 229.419 290.489 231.765C290.211 232.406 289.805 232.983 289.296 233.461C288.786 233.939 288.184 234.308 287.527 234.544C286.87 234.78 286.171 234.879 285.474 234.834C284.776 234.79 284.096 234.603 283.474 234.285C282.271 233.539 281.382 232.378 280.975 231.021C280.569 229.665 280.673 228.207 281.267 226.922C281.932 225.67 282.977 224.662 284.252 224.042C285.526 223.421 286.964 223.22 288.36 223.468" stroke="#171717" stroke-width="3" stroke-linecap="round" stroke-linejoin="round"/>
<path d="M393.217 196.476C392.015 195.467 390.525 194.864 388.96 194.755C387.395 194.646 385.835 195.036 384.506 195.869C383.223 196.77 382.305 198.101 381.918 199.62C381.532 201.139 381.702 202.747 382.399 204.152C382.793 204.818 383.316 205.401 383.936 205.865C384.556 206.329 385.262 206.667 386.013 206.858C386.763 207.049 387.545 207.09 388.311 206.978C389.078 206.867 389.815 206.606 390.481 206.209C393.726 204.004 393.596 199.229 392.822 195.384C391.085 186.773 387.924 178.513 383.47 170.943C391.924 169.471 400.167 166.976 408.018 163.512C411.158 172.898 413.909 182.403 416.271 192.027C416.73 193.899 417.152 195.976 416.235 197.672C414.976 200.002 411.345 200.382 409.407 198.572C408.492 197.609 407.951 196.352 407.88 195.026C407.809 193.699 408.213 192.392 409.02 191.337C409.659 190.345 410.593 189.578 411.691 189.145C412.789 188.712 413.995 188.634 415.14 188.923" stroke="#171717" stroke-width="3" stroke-linecap="round" stroke-linejoin="round"/>
<path d="M426.609 112.244C425.324 111.847 423.969 111.727 422.633 111.893C421.298 112.058 420.013 112.505 418.863 113.204C417.73 113.93 416.834 114.974 416.289 116.206C415.744 117.437 415.574 118.801 415.798 120.129C416.092 121.441 416.865 122.596 417.966 123.369C419.067 124.141 420.416 124.475 421.75 124.305C422.853 124.002 423.854 123.408 424.648 122.585C425.442 121.763 426.001 120.742 426.265 119.63C426.764 117.4 426.852 115.098 426.525 112.836L424.577 89.543C424.75 91.1314 425.427 92.6227 426.51 93.7973C427.594 94.9718 429.025 95.7677 430.595 96.0678C432.164 96.3678 433.788 96.1562 435.228 95.4641C436.668 94.772 437.848 93.6359 438.594 92.223" stroke="#171717" stroke-width="3" stroke-linecap="round" stroke-linejoin="round"/>
<path d="M693.655 379.867C690.734 376.425 685.626 374.513 681.536 376.423C677.446 378.333 675.926 384.728 679.436 387.568C682.021 389.66 686.015 389.048 688.688 387.068C691.361 385.088 693.021 382.068 694.599 379.137L715.142 341.018C713.51 343.867 713.069 347.245 713.916 350.418C714.762 353.59 716.826 356.301 719.661 357.959C722.495 359.617 725.869 360.088 729.049 359.271C732.229 358.454 734.958 356.414 736.642 353.596C729.048 368.957 721.149 384.163 712.947 399.215C711.126 402.555 708.625 406.32 704.822 406.444C700.273 406.591 697.509 399.922 700.611 396.591C703.713 393.26 710.232 395.059 711.511 399.426L713.394 397.965" stroke="#171717" stroke-width="3" stroke-linecap="round" stroke-linejoin="round"/>
<path d="M725.468 435.805L722.592 423.582" stroke="#171717" stroke-width="3" stroke-linecap="round" stroke-linejoin="round"/>
<path d="M716.812 431.37L729.693 426.879" stroke="#171717" stroke-width="3" stroke-linecap="round" stroke-linejoin="round"/>
<path d="M692.325 119.4L687.986 123.736C687.855 123.867 687.687 123.955 687.505 123.988C687.323 124.02 687.135 123.996 686.966 123.919C686.798 123.841 686.658 123.714 686.564 123.554C686.47 123.394 686.428 123.21 686.442 123.025L686.92 116.909C686.934 116.731 686.894 116.552 686.807 116.396C686.719 116.24 686.588 116.113 686.428 116.032L680.964 113.245C680.799 113.161 680.664 113.028 680.577 112.865C680.489 112.702 680.454 112.515 680.476 112.332C680.498 112.148 680.575 111.975 680.698 111.836C680.822 111.698 680.984 111.6 681.164 111.557L687.128 110.122C687.302 110.08 687.46 109.988 687.581 109.856C687.703 109.725 687.783 109.56 687.811 109.383L688.773 103.325C688.802 103.142 688.886 102.972 689.014 102.839C689.142 102.705 689.309 102.614 689.49 102.578C689.672 102.542 689.86 102.562 690.03 102.636C690.2 102.711 690.342 102.835 690.439 102.993L693.647 108.221C693.741 108.374 693.878 108.495 694.04 108.57C694.203 108.645 694.384 108.67 694.561 108.642L700.62 107.685C700.803 107.656 700.99 107.684 701.156 107.765C701.323 107.846 701.461 107.976 701.551 108.137C701.642 108.298 701.681 108.484 701.663 108.668C701.645 108.852 701.571 109.026 701.451 109.167L697.469 113.834C697.353 113.971 697.28 114.138 697.259 114.316C697.238 114.494 697.27 114.674 697.351 114.834L700.134 120.301C700.218 120.466 700.249 120.653 700.224 120.836C700.198 121.019 700.117 121.19 699.992 121.326C699.866 121.462 699.702 121.556 699.521 121.596C699.341 121.636 699.152 121.62 698.981 121.549L693.312 119.205C693.147 119.136 692.965 119.117 692.789 119.152C692.613 119.187 692.451 119.273 692.325 119.4V119.4Z" fill="#171717"/>
<path d="M390.172 254.794L385.833 259.131C385.702 259.262 385.534 259.349 385.352 259.382C385.17 259.414 384.982 259.39 384.814 259.312C384.646 259.235 384.506 259.108 384.412 258.948C384.318 258.788 384.276 258.604 384.29 258.419L384.768 252.304C384.782 252.126 384.743 251.947 384.655 251.791C384.568 251.635 384.436 251.508 384.276 251.426L378.811 248.639C378.647 248.555 378.512 248.422 378.425 248.259C378.338 248.096 378.303 247.91 378.325 247.726C378.346 247.542 378.424 247.37 378.547 247.231C378.669 247.093 378.832 246.996 379.011 246.952L384.975 245.516C385.15 245.475 385.308 245.382 385.429 245.251C385.551 245.119 385.63 244.954 385.657 244.777L386.619 238.719C386.648 238.536 386.733 238.367 386.861 238.233C386.989 238.1 387.156 238.009 387.337 237.973C387.519 237.936 387.707 237.957 387.877 238.031C388.047 238.105 388.189 238.229 388.286 238.387L391.494 243.616C391.588 243.769 391.725 243.89 391.888 243.965C392.05 244.04 392.231 244.065 392.408 244.037L398.467 243.079C398.65 243.05 398.838 243.078 399.004 243.159C399.171 243.24 399.308 243.37 399.399 243.532C399.489 243.693 399.528 243.879 399.51 244.063C399.492 244.247 399.417 244.421 399.297 244.562L395.316 249.229C395.2 249.365 395.126 249.533 395.105 249.711C395.084 249.889 395.117 250.07 395.198 250.229L397.981 255.695C398.065 255.86 398.096 256.047 398.071 256.23C398.046 256.413 397.965 256.584 397.839 256.72C397.714 256.856 397.549 256.95 397.369 256.99C397.188 257.03 396.999 257.014 396.828 256.943L391.159 254.599C390.994 254.531 390.812 254.513 390.636 254.547C390.461 254.582 390.299 254.668 390.172 254.794V254.794Z" fill="#171717"/>
<path d="M650.647 419.088L646.308 423.424C646.177 423.555 646.009 423.642 645.827 423.675C645.645 423.708 645.457 423.684 645.289 423.606C645.12 423.529 644.98 423.401 644.886 423.242C644.792 423.082 644.75 422.897 644.764 422.713L645.242 416.597C645.257 416.418 645.218 416.24 645.131 416.083C645.043 415.927 644.911 415.8 644.751 415.72L639.286 412.933C639.121 412.849 638.986 412.716 638.899 412.552C638.812 412.389 638.776 412.203 638.798 412.019C638.82 411.835 638.898 411.662 639.021 411.524C639.144 411.385 639.306 411.288 639.486 411.245L645.45 409.81C645.624 409.768 645.782 409.675 645.904 409.544C646.025 409.412 646.105 409.248 646.133 409.071L647.095 403.013C647.124 402.83 647.208 402.66 647.336 402.526C647.465 402.393 647.631 402.302 647.813 402.266C647.994 402.229 648.183 402.25 648.352 402.324C648.522 402.398 648.665 402.523 648.761 402.681L651.97 407.91C652.063 408.063 652.2 408.184 652.363 408.259C652.525 408.334 652.707 408.358 652.883 408.33L658.942 407.373C659.125 407.344 659.313 407.371 659.479 407.452C659.646 407.533 659.784 407.663 659.875 407.825C659.965 407.986 660.004 408.172 659.986 408.356C659.968 408.54 659.894 408.715 659.773 408.856L655.792 413.522C655.675 413.658 655.601 413.825 655.58 414.004C655.559 414.182 655.592 414.362 655.674 414.522L658.457 419.989C658.541 420.154 658.573 420.341 658.547 420.524C658.522 420.707 658.441 420.879 658.315 421.015C658.189 421.151 658.025 421.245 657.844 421.285C657.663 421.324 657.474 421.308 657.303 421.237L651.634 418.893C651.469 418.823 651.287 418.805 651.111 418.839C650.935 418.874 650.774 418.961 650.647 419.088V419.088Z" fill="#171717"/>
<path d="M344.45 441.555L324.302 439.158L334.376 456.894L344.45 441.555Z" stroke="#171717" stroke-width="3" stroke-linecap="round" stroke-linejoin="round"/>
<path d="M290.773 380.199L307.967 397.722L278.727 402.249L290.773 380.199Z" stroke="#171717" stroke-width="3" stroke-linecap="round" stroke-linejoin="round"/>
<path d="M328.1 306.377L330.976 329.105L307.967 323.882L328.1 306.377Z" stroke="#171717" stroke-width="3" stroke-linecap="round" stroke-linejoin="round"/>
<path d="M394.73 339.873V323.883L369.804 331.878L394.73 339.873Z" stroke="#171717" stroke-width="3" stroke-linecap="round" stroke-linejoin="round"/>
<path d="M442.201 386.908L428.861 402.247L457.041 406.446L442.201 386.908Z" stroke="#171717" stroke-width="3" stroke-linecap="round" stroke-linejoin="round"/>
<path d="M470.067 448.025L464.715 459.29L442.951 448.025H470.067Z" stroke="#171717" stroke-width="3" stroke-linecap="round" stroke-linejoin="round"/>
<path d="M523.89 429.695L537.097 412.971L542.259 432.946L523.89 429.695Z" stroke="#171717" stroke-width="3" stroke-linecap="round" stroke-linejoin="round"/>
<path d="M465.674 321.718L473.104 329.107L482.271 314.049L465.674 321.718Z" stroke="#171717" stroke-width="3" stroke-linecap="round" stroke-linejoin="round"/>
<path d="M530.9 335.158L547.483 343.766L550.038 321.576L530.9 335.158Z" stroke="#171717" stroke-width="3" stroke-linecap="round" stroke-linejoin="round"/>
<path d="M611.099 331.879V314.049L633.926 321.578L611.099 331.879Z" stroke="#171717" stroke-width="3" stroke-linecap="round" stroke-linejoin="round"/>
<path d="M624.818 265.154L622.513 280.973L647.348 270.427L624.818 265.154Z" stroke="#171717" stroke-width="3" stroke-linecap="round" stroke-linejoin="round"/>
<path d="M667.96 221.527L672.753 240.486L649.391 237.954L667.96 221.527Z" stroke="#171717" stroke-width="3" stroke-linecap="round" stroke-linejoin="round"/>
<path d="M622.513 216.179L633.926 202.839L611.099 198.131L622.513 216.179Z" stroke="#171717" stroke-width="3" stroke-linecap="round" stroke-linejoin="round"/>
<path d="M649.391 165.237L641.116 174.077L633.926 161.135L649.391 165.237Z" stroke="#171717" stroke-width="3" stroke-linecap="round" stroke-linejoin="round"/>
<path fill-rule="evenodd" clip-rule="evenodd" d="M550.532 484.32C515.094 491.328 417.5 485.41 417.5 485.41C417.5 485.41 434.043 580.562 388.979 610.765C343.915 640.968 305.564 622.755 287.351 595.425C282.544 588.213 275.632 587.011 268.232 589.497C247.586 596.423 223.132 632.004 229.832 645.765C230.818 647.793 231.964 650.548 233.336 653.849C233.522 654.296 233.712 654.752 233.906 655.218H233.917C245.551 683.006 273.227 744.745 360.217 746.425C414.092 747.46 446.209 730.836 464.3 715.425C464.3 715.425 438.833 820.719 445.062 835.583C446.27 838.483 448.837 841.283 452.362 843.883C466.886 854.558 497.669 861.495 516.962 855.709C540.93 848.528 585.145 751.118 607.198 671.064C629.251 591.01 550.532 484.32 550.532 484.32ZM510.437 550.463C510.216 549.664 509.389 549.196 508.591 549.418C507.793 549.639 507.325 550.466 507.546 551.264C515.345 579.399 514.649 609.213 505.545 636.954C496.442 664.695 479.337 689.124 456.384 707.167C455.732 707.679 455.619 708.622 456.131 709.273C456.643 709.925 457.586 710.037 458.238 709.526C481.656 691.116 499.108 666.192 508.396 637.889C517.684 609.586 518.394 579.168 510.437 550.463Z" fill="#171717"/>
<g opacity="0.1">
<path d="M519.072 184.419C515.449 182.381 510.744 182.38 506.653 182.042C501.697 181.64 496.713 181.741 491.777 182.342C483.67 183.315 475.312 185.886 468.589 190.652C453.74 201.178 452.159 220.085 452.242 236.752C452.293 246.818 468.423 246.709 467.805 236.752C466.963 223.192 466.085 209.004 477.177 199.275C482.599 194.519 489.689 192.308 496.709 191.163C503.759 190.012 512.561 191.399 519.072 188.469C520.708 187.733 520.492 185.22 519.072 184.421V184.419Z" fill="#171717"/>
</g>
<g opacity="0.1">
<path d="M447.093 289.565C446.261 291.003 445.728 292.594 445.524 294.242C445.142 296.077 444.244 297.742 444.424 299.666C444.453 300.956 444.851 302.211 445.571 303.281C446.291 304.352 447.303 305.194 448.487 305.706C449.689 306.226 451.019 306.374 452.306 306.13C453.593 305.887 454.778 305.263 455.707 304.34C456.672 303.187 457.4 301.853 457.848 300.417C458.296 298.982 458.455 297.471 458.317 295.973C458.217 293.359 457.489 290.196 455.317 288.506C452.542 286.352 449.178 286.525 447.101 289.565H447.093Z" fill="#171717"/>
</g>
<g opacity="0.1">
<path d="M329.03 293.716C322.316 292.269 314.05 297.029 308.423 300.343C301.69 304.233 295.397 308.841 289.656 314.086C277.683 325.108 268.107 338.478 261.526 353.363C254.626 369.343 251.891 386.588 255.941 403.702C259.783 419.937 268.686 435.336 278.029 449.002C288.46 464.266 301.035 477.788 316.555 487.959C325.313 493.7 333.429 479.675 324.741 473.959C313.339 466.272 303.403 456.609 295.4 445.426C287.005 433.926 279.141 421.117 274.248 407.704C269.029 393.734 268.978 378.359 274.102 364.354C278.786 350.896 287.102 338.367 296.754 327.954C301.944 322.274 307.56 317 313.554 312.177C316.473 309.869 319.431 307.567 322.454 305.408C325.5 303.236 328.916 301.24 330.697 297.843C330.909 297.47 331.033 297.053 331.061 296.625C331.088 296.197 331.019 295.768 330.857 295.371C330.695 294.973 330.446 294.618 330.127 294.33C329.809 294.043 329.429 293.832 329.017 293.712L329.03 293.716Z" fill="#171717"/>
</g>
<g opacity="0.1">
<path d="M406.269 362.006C405.891 365.427 408.62 368.294 410.155 371.131C412.053 374.62 413.523 378.324 414.533 382.165C417.067 391.754 415.172 402.837 413.665 412.48C410.468 433.04 405.721 453.329 399.465 473.174C396.091 483.836 412.85 488.414 416.188 477.783C423.776 453.615 429.318 428.444 430.782 403.096C431.409 392.227 429.97 379.405 423.861 370.077C421.213 366.034 417.89 361.969 413.395 359.877C411.077 358.797 406.635 358.657 406.265 362.006L406.269 362.006Z" fill="#171717"/>
</g>
<g opacity="0.1">
<path d="M585.1 167.733C581 175.12 585.09 185.463 587.179 193.064C589.516 201.564 592.572 209.903 595.406 218.251C600.691 233.816 606.97 250.441 605.781 267.165C605.26 274.487 602.481 281.516 596.963 286.465C591.563 291.302 583.556 294.765 576.746 297.107C568.337 299.999 558.608 299.338 550.505 302.727C542.557 306.051 533.189 301.508 525.334 305.18C523.654 305.965 523.834 308.552 525.334 309.389C531.834 313.022 540.072 310.097 547.097 309.896C550.321 309.804 553.097 311.006 556.389 310.741C560.207 310.434 564.056 309.768 567.826 309.108C581.733 306.674 595.618 304.647 606.742 295.183C629.165 276.108 619.325 238.475 611.585 214.702C608.942 206.583 606.06 198.525 603.278 190.453C601.838 186.279 600.516 182.084 599.238 177.858C598.026 173.85 596.902 169.405 593.566 166.639C590.987 164.499 586.912 164.461 585.1 167.73V167.733Z" fill="#171717"/>
</g>
</g>
<defs>
<linearGradient id="paint0_linear_583_1337" x1="470.064" y1="148.68" x2="470.064" y2="487.745" gradientUnits="userSpaceOnUse">
<stop stop-color="#4A9FFF"/>
<stop offset="1" stop-color="#2A67F7"/>
</linearGradient>
<clipPath id="clip0_583_1337">
<rect width="672" height="884" fill="white" transform="translate(144 38)"/>
</clipPath>
</defs>
</svg>
