<svg width="960" height="960" viewBox="0 0 960 960" fill="none" xmlns="http://www.w3.org/2000/svg">
<g clip-path="url(#clip0_46_7759)">
<g clip-path="url(#clip1_46_7759)">
<path fill-rule="evenodd" clip-rule="evenodd" d="M711.79 910.777C714.288 906.309 711.273 900.426 706.878 897.767C703.325 895.612 699.148 894.937 695.005 894.267C694.039 894.111 693.075 893.955 692.121 893.781C664.23 888.723 640.708 865.03 635.859 837.114C635.255 837.225 634.653 837.334 634.049 837.434C611.455 841.274 588.865 845.114 566.279 848.954C565.332 849.115 564.36 849.262 563.375 849.398L563.437 849.89C564.52 870.79 565.936 895.738 567.696 916.589C572.422 920.027 579.61 917.081 582.601 912.059C585.592 907.037 585.481 900.796 585.026 894.974C584.991 894.524 584.954 894.072 584.917 893.62C584.479 888.218 584.028 882.662 585.912 877.607C590.54 887.454 599.771 894.322 609.249 899.664C637.142 915.274 669.452 921.114 701.045 916.255C705.155 915.602 709.759 914.42 711.79 910.777ZM640.305 863.634C639.966 862.672 638.912 862.168 637.95 862.507C636.989 862.846 636.484 863.9 636.823 864.862C639.899 873.582 645.047 881.425 651.824 887.715C658.601 894.006 666.805 898.556 675.73 900.974C676.714 901.241 677.728 900.659 677.995 899.675C678.261 898.691 677.68 897.677 676.696 897.411C668.348 895.149 660.675 890.893 654.336 885.009C647.997 879.125 643.182 871.79 640.305 863.634Z" fill="url(#paint0_linear_46_7759)"/>
<path fill-rule="evenodd" clip-rule="evenodd" d="M386.577 915.701C388.362 913.092 387.599 909.386 385.667 906.876C383.795 904.454 381.043 902.901 378.367 901.39C378.282 901.341 378.196 901.293 378.11 901.244C367.365 895.197 356.841 888.429 348.521 879.332C340.2 870.236 334.194 858.531 333.936 846.21L333.849 845.804C322.524 848.218 310.068 845.523 298.536 842.716C293.022 841.387 287.015 839.627 282.51 836.427L282.042 837.214C273.288 857.039 264.528 876.859 255.764 896.675C261.479 899.69 267.199 902.711 272.922 905.739C277.997 895.302 283.077 884.864 288.16 874.427C298.106 887.405 312.199 896.701 327.178 903.241C342.157 909.781 358.108 913.745 373.974 917.683C378.38 918.778 384.004 919.443 386.577 915.701ZM328.846 862.086C328.602 861.096 327.601 860.492 326.611 860.736C325.622 860.98 325.017 861.981 325.261 862.971C328.963 877.972 338.377 890.935 351.497 899.096C352.363 899.635 353.502 899.37 354.04 898.504C354.579 897.638 354.313 896.5 353.448 895.961C341.145 888.308 332.317 876.153 328.846 862.086Z" fill="url(#paint1_linear_46_7759)"/>
<path fill-rule="evenodd" clip-rule="evenodd" d="M479.949 205.432C479.948 205.433 479.948 205.434 479.948 205.435L479.945 205.432H479.949ZM477.092 156.977C482.324 172.59 483.309 189.313 479.949 205.432H479.957C491.175 203.412 502.612 202.899 513.965 203.906L514.039 202.983C506.864 196.472 503.59 186.589 501.953 177C501.388 173.661 500.981 170.288 500.573 166.916C499.771 160.284 498.97 153.658 496.98 147.301C489.977 124.887 467.074 108.48 443.586 109.083C420.098 109.687 398.069 127.227 392.211 149.972C389.744 159.536 389.935 169.438 390.127 179.367C390.268 186.676 390.409 193.999 389.491 201.212C388.813 206.517 387.505 211.883 384.517 216.326C381.847 220.314 377.625 223.454 372.911 224.118L372.923 224.229C386.046 230.367 400.997 231.346 414.809 226.974C418.429 225.873 421.819 224.126 424.816 221.816C427.342 219.876 429.222 217.215 430.207 214.185C431.525 209.841 430.54 205.151 429.161 200.831C426.377 192.109 422.027 183.967 416.324 176.805L416.523 176.645C423.809 179.575 432.212 177.495 439.132 173.777C442.818 171.798 446.241 169.391 449.665 166.985C452.668 164.874 455.672 162.763 458.853 160.94C464.416 157.765 470.917 155.463 477.192 156.017L477.092 156.977ZM463.538 118.064C462.596 117.676 461.517 118.126 461.129 119.069C460.74 120.012 461.19 121.09 462.133 121.479C467.907 123.855 473.078 127.489 477.27 132.116C481.462 136.743 484.569 142.247 486.366 148.226C486.659 149.203 487.689 149.757 488.665 149.463C489.642 149.17 490.195 148.14 489.902 147.164C487.947 140.659 484.567 134.671 480.006 129.637C475.445 124.603 469.82 120.65 463.538 118.064Z" fill="#171717"/>
<path fill-rule="evenodd" clip-rule="evenodd" d="M198.653 569.221L197.89 568.716C194.961 560.509 183.468 558.378 175.69 562.316C167.911 566.255 163.049 574.132 158.581 581.616C155.435 586.889 152.292 592.165 149.153 597.444L150.716 598.379C157.339 603.065 163.961 607.746 170.582 612.423C179.818 597.936 189.175 583.535 198.653 569.221ZM183.728 566.062C182.492 565.717 181.2 565.622 179.927 565.781C178.916 565.908 178.198 566.831 178.325 567.842C178.452 568.854 179.375 569.571 180.386 569.445C181.173 569.346 181.972 569.405 182.736 569.618C183.5 569.831 184.214 570.194 184.836 570.685C185.458 571.177 185.977 571.788 186.361 572.481C186.745 573.175 186.987 573.939 187.074 574.727C187.185 575.74 188.096 576.472 189.11 576.361C190.123 576.25 190.855 575.339 190.744 574.325C190.604 573.05 190.212 571.815 189.591 570.693C188.97 569.571 188.131 568.583 187.125 567.788C186.118 566.993 184.963 566.406 183.728 566.062Z" fill="url(#paint2_linear_46_7759)"/>
<path fill-rule="evenodd" clip-rule="evenodd" d="M231.728 517.004C229.71 521.214 227.692 525.423 225.673 529.633C225.691 529.587 225.71 529.54 225.729 529.494C225.834 529.235 225.94 528.974 226.054 528.708L225.968 528.671C216.757 542.112 207.653 555.627 198.655 569.215C189.183 583.542 179.824 597.943 170.58 612.418C202.725 635.13 234.866 657.847 267.004 680.569L267.619 680.975C272.031 674.304 276.527 667.547 281.109 660.704C294.414 640.813 308.52 618.166 303.953 594.669C301.404 581.574 293.134 570.152 283.078 561.363C273.022 552.574 261.194 546.136 249.464 539.762L249.083 538.937C251.307 533.883 253.527 528.832 255.742 523.786C250.557 520.446 245.376 517.102 240.196 513.754C239.158 512.932 237.898 512.439 236.578 512.339C234.218 512.423 232.75 514.863 231.728 517.004ZM281.292 575.956C280.581 575.225 279.412 575.209 278.681 575.92C277.95 576.631 277.934 577.8 278.645 578.531C285.276 585.347 289.139 594.384 289.485 603.888C289.831 613.391 286.634 622.685 280.515 629.965C279.859 630.745 279.96 631.91 280.741 632.566C281.521 633.222 282.686 633.121 283.342 632.34C290.049 624.36 293.554 614.172 293.175 603.753C292.796 593.335 288.561 583.429 281.292 575.956Z" fill="url(#paint3_linear_46_7759)"/>
<path fill-rule="evenodd" clip-rule="evenodd" d="M366.777 812.52C410.865 724.135 445.682 631.422 470.672 535.865L472.347 536.306L472.383 536.385C493.512 582.063 514.739 627.952 528.812 676.271C542.893 724.617 549.687 775.857 541.391 825.534C540.308 831.996 539.179 839.319 543.163 844.513C547.615 850.323 555.886 850.409 563.382 849.4C564.366 849.264 565.338 849.117 566.286 848.957C588.88 845.117 611.47 841.276 634.056 837.436C634.649 837.339 635.241 837.23 635.834 837.122L635.866 837.116C645.749 835.339 656.445 832.447 661.221 823.77C665.726 815.573 663.086 805.454 660.298 796.531C620.5 669.411 570.092 545.86 509.603 427.182L509.456 425.987C506.441 426.278 503.41 426.36 500.384 426.233C469.051 425.39 437.723 424.537 406.398 423.674L406.362 423.673C396.429 423.402 386.446 423.13 376.612 421.728C401.523 553.846 367.528 695.983 285.505 802.524C279.572 810.241 273.025 819.78 276.446 828.888C277.652 831.963 279.769 834.596 282.514 836.433C287.019 839.635 293.025 841.393 298.539 842.723C310.073 845.527 322.529 848.222 333.852 845.81C336.728 845.202 339.516 844.231 342.148 842.922C354.013 836.952 360.845 824.397 366.777 812.52ZM513.933 472.463C513.419 471.583 512.288 471.287 511.408 471.801C510.528 472.316 510.231 473.446 510.746 474.326C566.298 569.369 607.961 671.873 634.47 778.721C634.715 779.711 635.716 780.314 636.706 780.068C637.695 779.823 638.299 778.822 638.053 777.832C611.46 670.642 569.663 567.81 513.933 472.463Z" fill="#171717"/>
<path d="M376.61 421.729C375.576 421.594 374.543 421.43 373.523 421.261C367.824 420.301 361.535 418.442 358.802 413.359C355.577 407.365 358.839 400.09 362.076 394.096C377.397 365.691 394.485 334.241 409.806 305.832C385.743 320.355 368.351 344.197 355.464 369.277C341.962 395.53 332.595 423.717 319.82 450.34C317.23 455.731 314.133 461.43 308.705 463.953C305.533 465.358 301.989 465.687 298.613 464.889C293.554 463.893 288.471 461.123 283.991 458.365C278.058 454.721 271.839 450.66 268.002 445.034C266.914 443.454 266.041 441.736 265.404 439.926C262.45 431.433 265.552 422.128 268.912 413.783C282.895 379.012 301.935 346.075 326.897 318.134C351.859 290.194 382.888 267.338 417.892 253.946L418.262 253.836C417.511 251.503 417.108 249.073 417.067 246.623C417.116 243.583 418.236 240.383 420.685 238.561C422.84 236.973 425.645 236.641 428.305 236.358C428.883 236.296 429.449 236.234 430.028 236.174C430.065 236.284 430.076 236.408 430.101 236.518C430.138 236.395 430.175 236.284 430.212 236.162C442.705 234.857 455.202 233.557 467.703 232.26C468.454 232.187 469.217 232.1 469.994 232.076C471.517 231.938 473.052 232.123 474.499 232.618C479.705 234.624 480.85 241.357 481.172 246.921V247.401C500.065 255.992 517.986 264.546 538.369 268.46C558.752 272.374 580.66 271.476 599.185 262.097C620.499 251.29 635.027 230.636 646.302 209.565C648.517 205.416 650.72 201.122 654.204 197.97C657.291 195.188 661.674 193.465 665.651 194.352C666.182 194.463 666.701 194.624 667.202 194.832C671.484 196.592 673.91 201.257 677.996 203.435C682.009 205.577 687.302 205.158 691.006 207.509C691.544 207.842 692.04 208.239 692.483 208.69C696.567 212.862 694.637 219.804 692.224 225.124C675.817 261.224 647.779 292.721 611.764 309.286C580.895 323.49 544.13 325.767 512.608 313.717L511.967 315.342C508.595 330.223 511.857 345.768 516.116 360.414C520.375 375.061 525.691 389.647 526.492 404.885C526.751 409.833 526.43 415.126 523.551 419.162C520.364 423.618 515.085 425.365 509.457 425.981C506.443 426.271 503.412 426.354 500.386 426.227C469.049 425.377 437.72 424.524 406.4 423.667C396.452 423.403 386.458 423.132 376.61 421.729Z" fill="url(#paint4_linear_46_7759)"/>
<path d="M267.323 474.717C266.161 473.776 265.348 472.474 265.014 471.017C264.679 469.56 264.842 468.033 265.476 466.68C266.191 465.308 267.265 464.157 268.583 463.348C269.901 462.539 271.414 462.104 272.96 462.089C276.074 462.112 279.057 463.344 281.281 465.523C283.32 467.336 284.64 469.822 284.998 472.527C285.173 473.613 285.091 474.725 284.759 475.773C284.427 476.822 283.854 477.778 283.086 478.565C282.318 479.353 281.376 479.949 280.336 480.307C279.296 480.665 278.187 480.774 277.097 480.626C275.986 480.52 274.898 480.241 273.872 479.802C271.383 478.561 269.114 476.923 267.152 474.952L267.323 474.717Z" fill="url(#paint5_linear_46_7759)"/>
<path d="M267.001 680.574L267.616 680.98C264.501 685.707 261.408 690.396 258.335 695.049L258.323 695.037C225.965 671.811 194.181 649.016 162.022 625.937C164.853 621.422 167.705 616.917 170.577 612.423C202.717 635.144 234.858 657.861 267.001 680.574Z" fill="#171717"/>
<path d="M258.331 695.037L258.343 695.049C240.216 722.632 223.179 749.131 206.181 775.915L205.882 775.731C173.751 754.225 142.773 731.045 113.075 706.287C128.977 679.257 145.294 652.474 162.025 625.937C194.189 649.016 225.968 671.81 258.331 695.037Z" fill="url(#paint6_linear_46_7759)"/>
<path d="M205.879 775.731L206.178 775.915C203.162 780.641 200.155 785.379 197.157 790.131C165.497 768.234 134.397 745.55 103.856 722.078C106.911 716.797 109.984 711.534 113.075 706.287C142.772 731.044 173.75 754.224 205.879 775.731V775.731Z" fill="#171717"/>
<path d="M150.715 598.379C157.338 603.056 163.96 607.738 170.581 612.423C167.714 616.916 164.863 621.421 162.027 625.937C155.208 621.039 148.365 616.128 141.496 611.205L141.09 610.959C143.785 606.453 146.472 601.949 149.151 597.444L150.715 598.379Z" fill="#171717"/>
<path d="M141.494 611.205C148.362 616.128 155.206 621.039 162.024 625.938C145.287 652.462 128.97 679.245 113.074 706.287C106.895 701.142 100.774 695.923 94.7099 690.631L93.9131 690.151C109.643 663.749 125.369 637.352 141.091 610.959L141.494 611.205Z" fill="url(#paint7_linear_46_7759)"/>
<path d="M197.153 790.131C180.536 816.409 163.773 843.204 145.889 871.785C143.611 868.422 140.629 865.596 137.149 863.503C133.669 861.409 129.775 860.099 125.737 859.662C121.7 859.225 117.615 859.673 113.768 860.973C109.921 862.274 106.403 864.397 103.459 867.194L103.447 867.182C81.6738 854.763 91.8778 862.381 72.5285 846.16C64.6392 839.55 56.8595 831.464 55.497 821.248C54.2022 811.537 58.9929 802.157 63.6821 793.542C71.3619 779.437 79.1572 765.389 87.0681 751.398C92.6065 741.6 98.201 731.827 103.852 722.08C134.38 745.538 165.48 768.221 197.153 790.131Z" fill="url(#paint8_linear_46_7759)"/>
<path d="M145.889 871.785C149.391 876.954 151.063 883.146 150.638 889.375C150.214 895.604 147.719 901.512 143.549 906.159C139.379 910.805 133.774 913.924 127.627 915.017C121.48 916.11 115.144 915.116 109.627 912.192C104.111 909.268 99.7311 904.583 97.1853 898.882C94.6394 893.181 94.0738 886.792 95.5785 880.733C97.0832 874.673 100.572 869.291 105.489 865.444C110.406 861.596 116.469 859.504 122.712 859.5C127.287 859.485 131.796 860.598 135.839 862.74C139.881 864.883 143.333 867.99 145.889 871.785V871.785Z" fill="#171717"/>
<path d="M113.074 706.287C109.985 711.542 106.912 716.806 103.855 722.078C97.7995 717.438 91.7684 712.761 85.7619 708.047L83.9033 706.939C87.2386 701.338 90.5742 695.742 93.9101 690.151L94.7069 690.631C100.778 695.923 106.9 701.141 113.074 706.287Z" fill="#171717"/>
<path d="M85.7633 708.047C91.7699 712.761 97.801 717.438 103.857 722.078C98.21 731.814 92.6138 741.587 87.0681 751.396L86.7852 751.236C78.7356 753.39 72.2367 744.983 71.7815 736.676C71.3263 728.368 75.7326 720.64 80.0035 713.487C81.3082 711.309 82.6 709.117 83.9048 706.939L85.7633 708.047Z" fill="url(#paint9_linear_46_7759)"/>
<path d="M453.929 205.508C455.16 205.862 456.452 205.95 457.719 205.767C458.349 205.657 458.929 205.356 459.38 204.905C459.832 204.453 460.133 203.873 460.242 203.244C460.342 201.89 459.257 200.782 458.384 199.736C455.707 196.565 454.365 192.479 454.642 188.339" stroke="#171717" stroke-width="3.69216" stroke-linecap="round" stroke-linejoin="round"/>
<path d="M469.944 180.067C469.577 179.251 469.003 178.546 468.277 178.023C467.552 177.5 466.702 177.178 465.812 177.088C464.922 176.998 464.025 177.144 463.209 177.511C462.394 177.879 461.69 178.455 461.168 179.181" stroke="#171717" stroke-width="3.69216" stroke-linecap="round" stroke-linejoin="round"/>
<path d="M441.622 184.03C441.084 183.212 440.351 182.541 439.489 182.077C438.626 181.613 437.662 181.371 436.683 181.372C435.704 181.373 434.741 181.618 433.88 182.085C433.019 182.551 432.287 183.224 431.751 184.043" stroke="#171717" stroke-width="3.69216" stroke-linecap="round" stroke-linejoin="round"/>
<path d="M452.983 218.334C451.439 219.208 449.66 219.575 447.896 219.38C446.133 219.186 444.476 218.441 443.16 217.251C443.078 217.176 443.017 217.08 442.984 216.973C442.952 216.867 442.948 216.753 442.975 216.645C443.001 216.537 443.056 216.437 443.134 216.358C443.212 216.278 443.31 216.221 443.418 216.192" stroke="#171717" stroke-width="3.69216" stroke-linecap="round" stroke-linejoin="round"/>
<path d="M469.92 232.218C469.945 232.169 469.969 232.131 469.994 232.082C474.686 223.775 478.047 214.783 479.954 205.434C483.315 189.314 482.329 172.59 477.098 156.976" stroke="#171717" stroke-width="3.69216" stroke-linecap="round" stroke-linejoin="round"/>
<path d="M481.352 156.805C479.998 156.391 478.603 156.127 477.192 156.017C470.917 155.463 464.416 157.765 458.852 160.94C452.046 164.842 446.052 170.061 439.132 173.778C432.211 177.495 423.808 179.575 416.522 176.645" stroke="#171717" stroke-width="3.69216" stroke-linecap="round" stroke-linejoin="round"/>
<path d="M413.337 173.265C414.371 174.409 415.38 175.591 416.325 176.809C422.028 183.972 426.379 192.113 429.163 200.835C430.541 205.155 431.526 209.845 430.209 214.189C429.224 217.219 427.344 219.88 424.817 221.82C421.821 224.13 418.43 225.877 414.811 226.978C400.999 231.351 386.048 230.371 372.925 224.233" stroke="#171717" stroke-width="3.69216" stroke-linecap="round" stroke-linejoin="round"/>
<path d="M371.277 224.254C371.826 224.246 372.373 224.201 372.915 224.118C377.629 223.454 381.851 220.315 384.521 216.327C387.509 211.884 388.817 206.517 389.494 201.212C391.66 184.202 387.931 166.577 392.214 149.972C398.073 127.227 420.102 109.687 443.59 109.084C467.077 108.48 489.98 124.887 496.983 147.301C499.986 156.89 500.282 167.093 501.956 177.001C503.594 186.589 506.867 196.473 514.043 202.983C514.264 203.193 514.498 203.402 514.74 203.599" stroke="#171717" stroke-width="3.69216" stroke-linecap="round" stroke-linejoin="round"/>
<path d="M514.646 203.97C514.424 203.945 514.19 203.933 513.968 203.908C502.615 202.901 491.178 203.414 479.96 205.434C480.514 205.235 481.08 205.041 481.634 204.844" stroke="#171717" stroke-width="3.69216" stroke-linecap="round" stroke-linejoin="round"/>
<path d="M425.166 222.223C427.473 226.607 429.111 231.312 430.027 236.181C430.064 236.291 430.076 236.415 430.101 236.525C430.138 236.402 430.175 236.291 430.212 236.169C430.311 235.87 430.396 235.578 430.495 235.282" stroke="#171717" stroke-width="3.69216" stroke-linecap="round" stroke-linejoin="round"/>
<path d="M418.778 255.591C418.605 255.012 418.433 254.433 418.261 253.843C417.51 251.51 417.107 249.08 417.065 246.63C417.114 243.59 418.235 240.39 420.684 238.568C422.838 236.981 425.644 236.648 428.303 236.365C428.882 236.303 429.448 236.242 430.026 236.181C430.088 236.181 430.15 236.169 430.211 236.169C442.704 234.864 455.201 233.564 467.702 232.268C468.453 232.194 469.216 232.107 469.993 232.083C471.516 231.946 473.051 232.13 474.498 232.625C479.704 234.631 480.849 241.364 481.171 246.928" stroke="#171717" stroke-width="3.69216" stroke-linecap="round" stroke-linejoin="round"/>
<path d="M481.168 247.406C500.061 255.997 517.982 264.551 538.365 268.465C558.748 272.38 580.656 271.481 599.181 262.102C620.495 251.295 635.023 230.641 646.297 209.57C648.512 205.422 650.716 201.127 654.2 197.976C657.287 195.194 661.67 193.471 665.647 194.357C666.177 194.468 666.697 194.629 667.197 194.837C671.48 196.597 673.905 201.262 677.992 203.441C682.005 205.582 687.298 205.164 691.002 207.514C691.539 207.848 692.035 208.244 692.479 208.695C696.562 212.868 694.633 219.81 692.22 225.129C675.813 261.229 647.774 292.727 611.76 309.291C580.891 323.495 544.126 325.772 512.604 313.722C507.319 311.704 502.199 309.276 497.292 306.461" stroke="#171717" stroke-width="3.69216" stroke-linecap="round" stroke-linejoin="round"/>
<path d="M409.804 305.822C410.924 305.145 412.056 304.492 413.201 303.853" stroke="#171717" stroke-width="3.69216" stroke-linecap="round" stroke-linejoin="round"/>
<path d="M417.889 253.954C382.884 267.346 351.855 290.203 326.894 318.143C301.933 346.082 282.892 379.02 268.909 413.791C265.549 422.137 262.447 431.441 265.401 439.934C266.037 441.744 266.911 443.462 267.999 445.043C271.839 450.668 278.058 454.73 283.988 458.373C288.47 461.13 293.549 463.9 298.61 464.897C301.986 465.694 305.53 465.366 308.702 463.962C314.13 461.439 317.232 455.74 319.817 450.348C332.592 423.725 341.96 395.54 355.461 369.285C368.349 344.201 385.74 320.36 409.803 305.84" stroke="#171717" stroke-width="3.69216" stroke-linecap="round" stroke-linejoin="round"/>
<path d="M409.805 305.822V305.834C394.484 334.242 377.397 365.691 362.073 394.097C358.836 400.091 355.574 407.366 358.799 413.36C361.531 418.439 367.82 420.302 373.52 421.262C374.541 421.434 375.575 421.595 376.607 421.73C386.454 423.134 396.448 423.405 406.393 423.675C437.719 424.539 469.048 425.392 500.38 426.235C503.406 426.362 506.437 426.28 509.451 425.989C515.077 425.374 520.356 423.626 523.545 419.171C526.425 415.134 526.745 409.841 526.486 404.893C525.689 389.654 520.368 375.082 516.11 360.423C511.851 345.764 508.589 330.23 511.961 315.35" stroke="#171717" stroke-width="3.69216" stroke-linecap="round" stroke-linejoin="round"/>
<path d="M429.941 253.499C429.642 251.185 429.362 248.871 429.067 246.545" stroke="#171717" stroke-width="3.69216" stroke-linecap="round" stroke-linejoin="round"/>
<path d="M441.474 252.182C441.289 248.994 441.104 245.818 440.92 242.63" stroke="#171717" stroke-width="3.69216" stroke-linecap="round" stroke-linejoin="round"/>
<path d="M455.14 250.455C454.993 247.267 454.857 244.08 454.709 240.903" stroke="#171717" stroke-width="3.69216" stroke-linecap="round" stroke-linejoin="round"/>
<path d="M468.171 248.292V239.16" stroke="#171717" stroke-width="3.69216" stroke-linecap="round" stroke-linejoin="round"/>
<path d="M376.498 421.151C376.535 421.35 376.572 421.532 376.609 421.729C401.521 553.847 367.525 695.984 285.502 802.525C279.57 810.242 273.021 819.782 276.438 828.889C277.644 831.964 279.761 834.596 282.506 836.434C287.011 839.634 293.018 841.394 298.531 842.723C310.064 845.53 322.52 848.225 333.845 845.811C336.721 845.203 339.508 844.232 342.14 842.923C354.005 836.953 360.837 824.397 366.769 812.521C410.86 724.136 445.679 631.422 470.669 535.864C477.081 511.333 482.837 486.646 487.937 461.804" stroke="#171717" stroke-width="3.69216" stroke-linecap="round" stroke-linejoin="round"/>
<path d="M472.342 536.306C493.488 582.007 514.708 627.917 528.8 676.264C542.892 724.612 549.675 775.851 541.379 825.528C540.296 831.99 539.164 839.313 543.151 844.507C547.607 850.317 555.878 850.403 563.37 849.394C564.355 849.258 565.327 849.111 566.274 848.951C588.86 845.11 611.45 841.27 634.044 837.43C634.648 837.33 635.25 837.221 635.854 837.11C645.737 835.338 656.433 832.445 661.209 823.764C665.714 815.567 663.079 805.449 660.286 796.525C620.488 669.405 570.08 545.854 509.591 427.176" stroke="#171717" stroke-width="3.69216" stroke-linecap="round" stroke-linejoin="round"/>
<path d="M267.152 474.952C269.114 476.923 271.383 478.561 273.872 479.802C274.898 480.241 275.986 480.52 277.097 480.627C278.086 480.766 279.094 480.69 280.052 480.405C281.01 480.12 281.895 479.632 282.647 478.974C283.399 478.316 284.001 477.504 284.411 476.593C284.822 475.682 285.031 474.694 285.025 473.694C285.048 473.305 285.039 472.914 285 472.525C284.642 469.82 283.323 467.334 281.283 465.521C279.059 463.341 276.076 462.11 272.962 462.087C271.416 462.103 269.903 462.538 268.585 463.346C267.267 464.155 266.193 465.306 265.479 466.678C264.844 468.031 264.681 469.558 265.016 471.015C265.35 472.472 266.163 473.775 267.325 474.715C267.4 474.777 267.478 474.834 267.559 474.888" stroke="#171717" stroke-width="3.69216" stroke-linecap="round" stroke-linejoin="round"/>
<path d="M276.986 481.819C278.638 483.434 280.081 485.249 281.282 487.222C281.43 487.493 281.565 487.764 281.701 488.035C282.308 489.193 282.635 490.478 282.657 491.786C282.678 493.094 282.393 494.389 281.824 495.567C279.719 499.321 274.454 499.838 270.255 498.891C264.584 497.612 259.466 494.565 255.639 490.189C251.812 485.813 249.474 480.335 248.962 474.545C248.45 468.754 249.79 462.951 252.79 457.971C255.789 452.992 260.293 449.094 265.651 446.839" stroke="#171717" stroke-width="3.69216" stroke-linecap="round" stroke-linejoin="round"/>
<path d="M288.311 475.649C289.726 476.403 291.345 476.683 292.931 476.449C294.517 476.215 295.986 475.478 297.123 474.348C298.26 473.218 299.005 471.754 299.249 470.169C299.493 468.585 299.222 466.964 298.478 465.544" stroke="#171717" stroke-width="3.69216" stroke-linecap="round" stroke-linejoin="round"/>
<path d="M288.296 475.639C287.586 474.879 286.764 474.231 285.858 473.719C286.51 474.54 287.345 475.198 288.296 475.639" stroke="#171717" stroke-width="3.69216" stroke-linecap="round" stroke-linejoin="round"/>
<path d="M288.297 475.639C288.297 475.639 288.297 475.664 288.309 475.651" stroke="#171717" stroke-width="3.69216" stroke-linecap="round" stroke-linejoin="round"/>
<path d="M281.466 487.123C284.519 489.549 289.639 487.247 290.648 483.468C290.949 482.074 290.892 480.626 290.484 479.259C290.075 477.892 289.328 476.65 288.311 475.65" stroke="#171717" stroke-width="3.69216" stroke-linecap="round" stroke-linejoin="round"/>
<path d="M249.083 538.942C251.298 533.896 253.518 528.845 255.742 523.791C250.563 520.444 245.381 517.1 240.196 513.759C239.159 512.937 237.898 512.444 236.578 512.344C234.215 512.431 232.75 514.867 231.729 517.009C229.709 521.218 227.691 525.428 225.673 529.637C225.796 529.33 225.919 529.022 226.054 528.714C226.19 528.345 226.353 527.976 226.498 527.619" stroke="#171717" stroke-width="3.69216" stroke-linecap="round" stroke-linejoin="round"/>
<path d="M244.036 514.693C247.252 507.125 251.115 499.848 255.582 492.944" stroke="#171717" stroke-width="3.69216" stroke-linecap="round" stroke-linejoin="round"/>
<path d="M225.965 528.676C216.758 542.117 207.654 555.632 198.653 569.22C189.175 583.535 179.818 597.936 170.582 612.423C167.715 616.916 164.863 621.421 162.027 625.938C145.287 652.462 128.969 679.245 113.073 706.287C109.984 711.542 106.911 716.806 103.854 722.078C98.2075 731.814 92.6113 741.587 87.0656 751.396C79.1514 765.392 71.3561 779.439 63.6796 793.54C58.9904 802.155 54.2017 811.535 55.4945 821.246C56.861 831.462 64.6397 839.548 72.526 846.158C91.8743 862.38 81.6713 854.761 103.445 867.18" stroke="#171717" stroke-width="3.69216" stroke-linecap="round" stroke-linejoin="round"/>
<path d="M145.89 871.785C163.774 843.204 180.537 816.407 197.154 790.131C200.156 785.38 203.163 780.641 206.175 775.915C223.173 749.132 240.208 722.629 258.338 695.049C261.402 690.396 264.496 685.707 267.618 680.98C272.05 674.309 276.547 667.552 281.108 660.709C294.414 640.819 308.519 618.171 303.952 594.674C301.405 581.578 293.133 570.144 283.077 561.368C273.022 552.592 261.193 546.142 249.463 539.767" stroke="#171717" stroke-width="3.69216" stroke-linecap="round" stroke-linejoin="round"/>
<path d="M197.893 568.715C194.964 560.505 183.468 558.389 175.688 562.315C167.908 566.241 163.048 574.131 158.58 581.615C155.442 586.895 152.299 592.171 149.152 597.443C146.468 601.947 143.781 606.452 141.09 610.958C125.372 637.347 109.646 663.744 93.9116 690.149C90.5763 695.737 87.2407 701.333 83.9048 706.938C82.6 709.116 81.3082 711.307 80.0035 713.486C75.7326 720.637 71.3263 728.354 71.7815 736.674C72.2367 744.995 78.7356 753.389 86.7852 751.235" stroke="#171717" stroke-width="3.69216" stroke-linecap="round" stroke-linejoin="round"/>
<path d="M258.332 695.037C225.973 671.811 194.189 649.016 162.03 625.937C155.212 621.039 148.368 616.128 141.5 611.205" stroke="#171717" stroke-width="3.69216" stroke-linecap="round" stroke-linejoin="round"/>
<path d="M267.003 680.574C234.865 657.852 202.724 635.135 170.579 612.423C163.958 607.746 157.336 603.065 150.713 598.379" stroke="#171717" stroke-width="3.69216" stroke-linecap="round" stroke-linejoin="round"/>
<path d="M205.88 775.731C173.75 754.225 142.772 731.045 113.075 706.287C106.896 701.141 100.775 695.923 94.7109 690.631" stroke="#171717" stroke-width="3.69216" stroke-linecap="round" stroke-linejoin="round"/>
<path d="M197.227 790.186C197.202 790.174 197.178 790.149 197.153 790.137C165.496 768.237 134.397 745.551 103.856 722.079C97.8003 717.439 91.7692 712.761 85.7627 708.048" stroke="#171717" stroke-width="3.69216" stroke-linecap="round" stroke-linejoin="round"/>
<path d="M333.937 846.22C334.195 858.541 340.201 870.246 348.522 879.342C356.842 888.439 367.366 895.208 378.111 901.254C380.868 902.805 383.736 904.381 385.669 906.88C387.601 909.379 388.364 913.096 386.579 915.705C384.006 919.447 378.382 918.782 373.976 917.687C358.11 913.749 342.158 909.785 327.18 903.245C312.201 896.706 298.107 887.409 288.162 874.431C283.079 884.868 277.999 895.306 272.924 905.743C267.201 902.715 261.481 899.696 255.766 896.685C264.53 876.868 273.29 857.048 282.044 837.224" stroke="#171717" stroke-width="3.69216" stroke-linecap="round" stroke-linejoin="round"/>
<path d="M563.438 849.887C564.521 870.788 565.937 895.736 567.697 916.586C572.423 920.021 579.611 917.091 582.602 912.057C585.593 907.022 585.483 900.802 585.028 894.972C584.573 889.143 583.87 883.082 585.914 877.605C590.543 887.452 599.773 894.32 609.25 899.661C637.143 915.272 669.454 921.112 701.046 916.253C705.158 915.6 709.76 914.419 711.791 910.775C714.29 906.307 711.274 900.423 706.88 897.765C702.486 895.107 697.169 894.7 692.122 893.781C664.234 888.722 640.71 865.029 635.86 837.114C635.851 837.099 635.847 837.082 635.848 837.065" stroke="#171717" stroke-width="3.39635" stroke-linecap="round" stroke-linejoin="round"/>
<path d="M665.709 194.086C662.693 190.123 659.686 186.164 656.687 182.209C655.492 180.633 654.373 178.184 655.911 176.953C657.056 176.057 658.718 176.682 659.985 177.384C663.496 179.354 666.764 181.729 669.721 184.462" stroke="#171717" stroke-width="3.69216" stroke-linecap="round" stroke-linejoin="round"/>
<path d="M669.756 184.449C668.493 173.637 669.822 162.68 673.633 152.484C674.199 150.99 675.11 149.284 676.698 149.16C677.269 149.168 677.827 149.341 678.303 149.657C678.779 149.974 679.153 150.421 679.381 150.945C679.81 152.001 680.028 153.13 680.021 154.269C680.538 163.747 680.6 173.249 680.206 182.714C680.181 183.44 680.144 184.166 680.106 184.892" stroke="#171717" stroke-width="3.69216" stroke-linecap="round" stroke-linejoin="round"/>
<path d="M679.825 185.249C679.936 184.399 680.059 183.555 680.207 182.713C681.708 172.82 684.093 163.082 687.333 153.616C688.071 151.461 689.364 148.934 691.641 148.902C692.364 148.946 693.059 149.195 693.645 149.62C694.232 150.045 694.685 150.629 694.951 151.302C695.474 152.658 695.701 154.11 695.616 155.561C695.686 165.085 694.266 174.562 691.407 183.648C691.161 184.445 690.89 185.249 690.619 186.038" stroke="#171717" stroke-width="3.69216" stroke-linecap="round" stroke-linejoin="round"/>
<path d="M689.686 186.578C690.264 185.606 690.83 184.621 691.409 183.649C695.127 177.297 698.848 170.95 702.572 164.607C703.469 162.835 704.688 161.245 706.166 159.918C706.914 159.264 707.825 158.825 708.802 158.647C709.78 158.469 710.787 158.56 711.717 158.909C713.649 159.806 714.573 162.158 714.437 164.288C714.162 166.411 713.463 168.458 712.381 170.306C706.092 182.812 699.466 195.149 692.503 207.318" stroke="#171717" stroke-width="3.69216" stroke-linecap="round" stroke-linejoin="round"/>
<path d="M145.889 871.785C149.391 876.954 151.063 883.146 150.638 889.375C150.214 895.604 147.719 901.512 143.549 906.159C139.379 910.805 133.774 913.924 127.627 915.017C121.48 916.11 115.144 915.116 109.627 912.192C104.111 909.268 99.7311 904.583 97.1853 898.882C94.6394 893.181 94.0738 886.792 95.5785 880.733C97.0832 874.673 100.572 869.291 105.489 865.444C110.406 861.596 116.469 859.504 122.712 859.5C127.287 859.485 131.796 860.598 135.839 862.74C139.881 864.883 143.333 867.99 145.889 871.785V871.785Z" stroke="#171717" stroke-width="3.39635" stroke-linecap="round" stroke-linejoin="round"/>
<path d="M455.112 171.34C459.892 169.216 465.172 168.478 470.351 169.211" stroke="#171717" stroke-width="3.69216" stroke-linecap="round" stroke-linejoin="round"/>
<path d="M723.414 192.209C730.615 183.842 734.574 173.168 734.569 162.129" stroke="#171717" stroke-width="3.69216" stroke-linecap="round" stroke-linejoin="round"/>
<path d="M738.593 187.639L742.124 177.232" stroke="#171717" stroke-width="3.69216" stroke-linecap="round" stroke-linejoin="round"/>
<path d="M369.997 381.834C378.245 391.836 388.797 401.841 401.759 402.019C410.516 402.14 418.664 397.654 425.772 392.538C432.879 387.423 439.537 381.483 447.549 377.952C453.667 375.319 460.319 374.167 466.966 374.589C473.613 375.011 480.066 376.996 485.801 380.382C492.103 384.18 497.317 389.596 503.664 393.32C510.01 397.044 518.361 398.833 524.58 394.893" stroke="#171717" stroke-width="3.69216" stroke-linecap="round" stroke-linejoin="round"/>
<path d="M378.634 365.184C379.829 374.352 389.116 380.897 398.34 381.524C407.564 382.15 416.494 378.095 424.222 373.019C431.95 367.942 438.951 361.757 447.04 357.282C455.128 352.807 464.811 350.119 473.659 352.8C482.117 355.363 488.377 362.277 495.093 368.022C501.809 373.767 510.597 378.779 519.105 376.388" stroke="#171717" stroke-width="3.69216" stroke-linecap="round" stroke-linejoin="round"/>
<path d="M385.682 348.679C390.48 358.34 403.731 360.81 414.018 357.57C424.304 354.33 432.672 346.973 441.684 341.049C450.695 335.126 461.709 330.417 472.071 333.406C479.533 335.558 485.296 341.309 491.548 345.917C497.8 350.524 505.907 354.21 513.167 351.45" stroke="#171717" stroke-width="3.69216" stroke-linecap="round" stroke-linejoin="round"/>
<path d="M644.687 213.677C656.35 224.265 669.817 232.678 684.448 238.517" stroke="#171717" stroke-width="3.69216" stroke-linecap="round" stroke-linejoin="round"/>
<path d="M637.598 225.382C648.431 237.736 662.871 246.376 678.879 250.083" stroke="#171717" stroke-width="3.69216" stroke-linecap="round" stroke-linejoin="round"/>
<path d="M277.51 394.91C293.52 407.479 311.275 417.65 330.217 425.102C330.326 424.985 330.41 424.847 330.463 424.697C330.517 424.546 330.538 424.386 330.526 424.227C330.514 424.068 330.469 423.913 330.394 423.772C330.319 423.631 330.215 423.507 330.089 423.408" stroke="#171717" stroke-width="3.69216" stroke-linecap="round" stroke-linejoin="round"/>
<path d="M286.688 377.075C302.614 388.658 319.98 398.12 338.348 405.223" stroke="#171717" stroke-width="3.69216" stroke-linecap="round" stroke-linejoin="round"/>
<path d="M538.813 130.666L527.666 113.195" stroke="#171717" stroke-width="3.69216" stroke-linecap="round" stroke-linejoin="round"/>
<path d="M522.482 128.843L541.601 114.078" stroke="#171717" stroke-width="3.69216" stroke-linecap="round" stroke-linejoin="round"/>
<path d="M340.878 246.123L325.805 231.669" stroke="#171717" stroke-width="3.69216" stroke-linecap="round" stroke-linejoin="round"/>
<path d="M326.039 246.925L336.584 233.114" stroke="#171717" stroke-width="3.69216" stroke-linecap="round" stroke-linejoin="round"/>
<path d="M286.943 100.585C270.222 99.283 256.611 99.283 242.667 98.0499L239.233 88.8569" stroke="#171717" stroke-width="3.69216" stroke-linecap="round" stroke-linejoin="round"/>
<path d="M253.15 110.59L272.017 89.5161" stroke="#171717" stroke-width="3.69216" stroke-linecap="round" stroke-linejoin="round"/>
<path d="M901.31 87.6189C858.457 85.6062 815.514 86.7361 772.826 90.9993C768.118 91.4694 763.204 92.0521 759.281 94.6924C755.357 97.3328 752.843 102.715 754.974 106.943C757.299 111.554 763.409 112.421 768.57 112.555C779.516 112.837 790.469 112.438 801.365 111.359L853.349 138.241L892.445 135.635L832.632 105.329C858.584 99.5957 885.15 97.1245 911.714 97.9723" stroke="#171717" stroke-width="3.69216" stroke-linecap="round" stroke-linejoin="round"/>
<path d="M900.604 88.3131C900.007 84.1299 899.439 79.7007 901.093 75.8123C902.747 71.924 907.507 69.0306 911.287 70.92C914.312 72.4319 915.421 76.158 915.857 79.5115C916.637 85.5144 915.021 92.8977 913.498 98.7561" stroke="#171717" stroke-width="3.69216" stroke-linecap="round" stroke-linejoin="round"/>
<path d="M801.652 87.9883L838.722 59.0277L859.574 58.448L836.984 86.8299" stroke="#171717" stroke-width="3.69216" stroke-linecap="round" stroke-linejoin="round"/>
<path d="M109.464 342.395C130.732 326.674 163.466 333.31 180.821 353.268C198.176 373.226 201.366 402.846 193.769 428.18C187.226 450.003 172.335 470.247 151.147 478.621C129.96 486.994 102.615 480.738 90.6047 461.381C84.3787 451.348 82.9952 437.489 90.1166 428.07C98.3983 417.114 115.441 416.031 127.527 422.551C145.713 432.36 153.644 457.526 144.368 475.99C136.536 491.579 119.715 500.3 103.51 506.76C87.3049 513.22 69.9566 518.876 57.8622 531.451C39.3626 550.686 39.3576 584.674 57.8523 603.914" stroke="url(#paint10_linear_46_7759)" stroke-width="3.69216" stroke-linecap="round" stroke-linejoin="round"/>
<path d="M675.368 637.348C689.95 639.578 705.135 633.981 716.086 624.096C727.037 614.211 733.982 600.412 737.306 586.04C741.19 569.223 739.917 550.201 729.253 536.627C721.422 526.661 709.632 520.824 699.318 513.452C683.891 502.389 671.507 487.61 663.315 470.485C656.593 456.386 653.355 438.283 663.137 426.104C674.607 411.818 700.546 415.573 709.344 431.642C718.142 447.712 709.556 469.959 693.144 478.099C676.732 486.238 655.548 481.051 642.76 467.933C629.971 454.814 625.146 435.212 627.576 417.054C630.005 398.896 639.03 382.117 650.633 367.939C674.388 339.169 708.152 320.457 745.139 315.564" stroke="#171717" stroke-width="3.69216" stroke-linecap="round" stroke-linejoin="round"/>
<path d="M625.862 352.111L622.387 335.603" stroke="url(#paint11_linear_46_7759)" stroke-width="3.69216" stroke-linecap="round" stroke-linejoin="round"/>
<path d="M612.869 347.008L631.195 340.272" stroke="url(#paint12_linear_46_7759)" stroke-width="3.69216" stroke-linecap="round" stroke-linejoin="round"/>
<path d="M150.634 388.599L146.294 376.434" stroke="#171717" stroke-width="3.69216" stroke-linecap="round" stroke-linejoin="round"/>
<path d="M139.41 387.044L154.922 378.976" stroke="#171717" stroke-width="3.69216" stroke-linecap="round" stroke-linejoin="round"/>
<path d="M213.229 452.87L208.879 442.447" stroke="url(#paint13_linear_46_7759)" stroke-width="3.69216" stroke-linecap="round" stroke-linejoin="round"/>
<path d="M203.659 452.119L217.545 445.138" stroke="url(#paint14_linear_46_7759)" stroke-width="3.69216" stroke-linecap="round" stroke-linejoin="round"/>
<path d="M728.384 480.697L737.945 473.746" stroke="#171717" stroke-width="3.69216" stroke-linecap="round" stroke-linejoin="round"/>
<path d="M734.466 483.304C733.702 479.162 731.909 475.278 729.253 472.009" stroke="#171717" stroke-width="3.69216" stroke-linecap="round" stroke-linejoin="round"/>
<path d="M520.717 80.2076C518.269 79.1065 515.546 78.7698 512.904 79.2415" stroke="#171717" stroke-width="3.69216" stroke-linecap="round" stroke-linejoin="round"/>
<path d="M515.529 84.9485C515.965 81.4731 516.4 77.9978 516.834 74.5224" stroke="#171717" stroke-width="3.69216" stroke-linecap="round" stroke-linejoin="round"/>
<path d="M583.287 88.4056L641.024 88.0072C644.75 87.9813 648.593 87.9335 652.02 86.4793C654.124 85.587 655.982 84.1992 657.435 82.4341C658.888 80.669 659.893 78.5789 660.364 76.3418C660.835 74.1047 660.759 71.7868 660.141 69.5857C659.523 67.3845 658.383 65.3653 656.816 63.6999C655.25 62.0345 653.305 60.7723 651.146 60.0208C648.986 59.2694 646.678 59.0508 644.416 59.3839C642.154 59.7169 640.006 60.5917 638.155 61.9337C636.305 63.2757 634.805 65.0451 633.786 67.0912C635.323 64.935 636.297 62.4291 636.62 59.8009C636.943 57.1728 636.604 54.5056 635.635 52.0414C634.666 49.5771 633.097 47.3939 631.07 45.6898C629.044 43.9857 626.624 42.8147 624.03 42.283C621.436 41.7513 618.75 41.8758 616.216 42.6452C613.682 43.4146 611.381 44.8045 609.521 46.6887C607.66 48.573 606.3 50.892 605.563 53.4353C604.826 55.9786 604.736 58.6657 605.3 61.2527C603.508 58.44 601.019 56.1383 598.075 54.571C595.132 53.0037 591.833 52.2239 588.498 52.3074C585.164 52.3909 581.909 53.3347 579.047 55.0475C576.185 56.7602 573.815 59.1835 572.165 62.0824C570.196 65.5435 569.358 69.8761 570.914 73.5363C572.471 77.1966 576.874 79.7205 580.61 78.343" stroke="#171717" stroke-width="3.69216" stroke-linecap="round" stroke-linejoin="round"/>
<path d="M213.744 247.498C223.554 247.412 234.021 247.128 242.103 241.567C247.88 237.59 251.707 231.359 254.66 224.996C257.881 218.054 259.938 208.967 254.649 203.437C250.291 198.884 242.608 199.142 237.154 202.302C231.7 205.462 227.955 210.829 224.388 216.026C227.277 206.402 229.157 195.98 226.158 186.391C223.159 176.801 213.959 168.543 203.97 169.625C195.682 170.522 189.068 177.501 186.103 185.293C183.138 193.086 183.123 201.644 183.147 209.981C180.473 202.253 174.244 195.611 166.376 193.377C158.509 191.143 149.223 193.865 144.523 200.558C139.823 207.251 140.77 217.57 147.164 222.669C144.789 217.689 138.344 215.775 132.935 216.875C127.525 217.976 122.914 221.377 118.493 224.688C110.787 230.465 104.449 240.982 116.109 246.744C123.253 250.273 133.533 249.334 141.293 248.788C165.352 247.09 189.633 247.711 213.744 247.498Z" stroke="#171717" stroke-width="3.69216" stroke-linecap="round" stroke-linejoin="round"/>
<path d="M749.677 405.868L803.849 404.949C812.785 404.798 822.615 404.301 829.127 398.177C836.485 391.26 836.258 377.935 828.668 371.274C821.079 364.613 807.837 366.114 801.933 374.306C802.287 366.568 798.23 358.638 791.444 354.905C784.657 351.172 775.418 352.174 769.974 357.683C764.53 363.193 763.792 372.89 768.757 378.836C766.872 376.519 764.544 374.6 761.909 373.192C759.274 371.784 756.385 370.915 753.41 370.636C747.463 370.248 741.24 372.994 738.083 378.049C734.926 383.103 735.388 390.342 739.632 394.525C735.893 392.584 731.06 392.45 727.62 394.883C724.18 397.316 722.769 402.525 725.122 406.02C727.476 409.515 733.559 409.805 735.752 406.212" stroke="url(#paint15_linear_46_7759)" stroke-width="3.69216" stroke-linecap="round" stroke-linejoin="round"/>
<path d="M586.327 151.784L599.345 153.63C599.455 153.646 599.557 153.695 599.639 153.77C599.72 153.846 599.776 153.945 599.8 154.053C599.823 154.162 599.813 154.275 599.77 154.378C599.727 154.48 599.654 154.567 599.56 154.626L588.469 161.687C588.378 161.745 588.307 161.828 588.263 161.926C588.22 162.024 588.207 162.133 588.225 162.239L590.491 175.187C590.51 175.296 590.496 175.409 590.449 175.51C590.402 175.61 590.325 175.694 590.229 175.75C590.133 175.806 590.022 175.831 589.912 175.822C589.801 175.813 589.696 175.77 589.61 175.7L579.468 167.333C579.385 167.266 579.284 167.224 579.178 167.213C579.072 167.202 578.965 167.223 578.87 167.273L567.253 173.43C567.155 173.482 567.043 173.502 566.933 173.489C566.823 173.475 566.72 173.428 566.637 173.354C566.554 173.28 566.496 173.183 566.47 173.075C566.445 172.967 566.452 172.854 566.493 172.751L571.316 160.519C571.356 160.419 571.365 160.31 571.342 160.205C571.319 160.1 571.266 160.004 571.189 159.929L561.743 150.783C561.663 150.706 561.609 150.606 561.587 150.497C561.566 150.388 561.578 150.275 561.623 150.173C561.668 150.072 561.743 149.986 561.838 149.929C561.933 149.871 562.043 149.844 562.154 149.851L575.278 150.658C575.385 150.665 575.491 150.64 575.584 150.586C575.677 150.532 575.751 150.451 575.798 150.355L581.575 138.544C581.624 138.444 581.701 138.361 581.798 138.307C581.895 138.253 582.006 138.229 582.117 138.24C582.227 138.251 582.332 138.296 582.416 138.368C582.501 138.44 582.561 138.536 582.589 138.644L585.876 151.375C585.902 151.48 585.959 151.575 586.039 151.648C586.12 151.721 586.22 151.768 586.327 151.784V151.784Z" fill="url(#paint16_linear_46_7759)"/>
<g opacity="0.1">
<path d="M422.858 179.241C422.648 184.065 422.636 187.675 423.817 192.426C424.871 196.774 425.686 201.177 426.259 205.615C427.368 214.743 427.397 223.97 426.345 233.104C425.738 239.024 435.748 240.423 436.803 234.52C438.606 224.474 438.851 214.211 437.53 204.091C436.886 199.154 435.838 194.278 434.394 189.512C432.839 184.339 430.53 181.333 426.686 177.66C426.368 177.36 425.97 177.158 425.539 177.078C425.109 176.999 424.665 177.046 424.26 177.214C423.856 177.381 423.509 177.662 423.26 178.022C423.012 178.383 422.873 178.807 422.861 179.245L422.858 179.241Z" fill="#171717"/>
</g>
<g opacity="0.1">
<path d="M419.039 240.709C417.759 244.183 418.853 248.423 419.2 252.025C419.555 255.71 419.18 259.687 422.004 262.41C422.438 262.83 422.961 263.147 423.534 263.337C424.107 263.527 424.715 263.585 425.314 263.508C425.913 263.431 426.486 263.22 426.992 262.891C427.498 262.562 427.924 262.123 428.237 261.607C430.307 258.288 428.934 254.43 428.379 250.782C427.839 247.196 427.869 242.884 425.781 239.826C425.4 239.221 424.853 238.738 424.205 238.433C423.558 238.129 422.837 238.017 422.128 238.109C421.419 238.202 420.751 238.496 420.203 238.957C419.656 239.417 419.252 240.025 419.039 240.707V240.709Z" fill="#171717"/>
</g>
<g opacity="0.1">
<path d="M412.639 295.395C405.501 296.139 398.007 300.459 392.121 304.477C385.521 309.025 379.332 314.141 373.624 319.767C361.594 331.542 352.25 346.189 343.96 360.737C334.932 376.581 327.426 393.197 319.727 409.707C315.617 418.52 311.503 427.328 307.531 436.201L301.965 448.639C299.839 453.389 296.961 458.316 295.872 463.411C293.705 473.548 306.237 478.351 312.085 470.246C314.695 466.628 316.156 462.066 317.955 457.985L323.458 445.511C327.132 437.183 330.679 428.805 334.223 420.42C341.116 404.113 347.763 387.643 355.463 371.693C362.44 357.108 371.077 343.377 381.202 330.773C385.901 324.881 391.126 319.428 396.812 314.482C399.617 312.068 402.46 309.653 405.355 307.35C408.453 304.886 411.877 303.132 414.65 300.254C416.216 298.63 415.216 295.124 412.637 295.393L412.639 295.395Z" fill="#171717"/>
</g>
<g opacity="0.1">
<path d="M415.8 301.848C403.449 317.541 394.311 335.639 385.532 353.54C376.525 371.909 368.135 390.539 359.944 409.287C354.62 421.473 371.807 428.876 376.84 416.411C384.369 397.759 392.173 379.219 399.807 360.613C407.357 342.215 415.519 323.691 420.014 304.299C420.53 302.073 417.47 299.724 415.8 301.846V301.848Z" fill="#171717"/>
</g>
<g opacity="0.1">
<path d="M492.138 302.944C503.245 316.352 523.804 320.053 540.259 322.191C557.952 324.35 575.893 323.19 593.161 318.771C625.192 310.739 653.064 291.281 673.019 265.186C683.975 250.789 692.143 234.47 697.101 217.071C700.635 204.745 681.444 199.48 677.923 211.784C670.297 238.276 654.336 261.605 632.406 278.31C608.103 296.682 578.014 305.133 547.695 303.144C539.173 302.599 530.719 301.274 522.44 299.185C513.536 296.932 505.164 294.114 495.93 293.78C490.895 293.598 489.356 299.598 492.133 302.944H492.138Z" fill="#171717"/>
</g>
<g opacity="0.1">
<path d="M111.926 239.498C119.301 247.541 135.423 247.611 145.508 247.62C159.199 247.632 172.919 246.634 186.594 246.02C199.815 245.423 213.349 245.599 226.452 243.609C237.812 241.884 249.61 236.737 254.749 225.836C258.303 218.299 248.592 212.789 243.703 219.379C237.555 227.665 227.17 229.937 217.466 230.609C205.558 231.435 193.598 231.755 181.674 232.302C170.194 232.828 158.717 233.435 147.238 233.963C141.792 234.286 136.33 234.234 130.892 233.809C125.669 233.328 120.679 231.044 115.469 230.946C110.958 230.859 109.082 236.399 111.926 239.499V239.498Z" fill="#171717"/>
</g>
<g opacity="0.1">
<path d="M581.958 86.2901C596.231 88.5879 611.405 87.4923 625.847 87.4993C631.849 87.4993 637.868 87.6108 643.822 86.7224C649.078 85.9375 656.178 84.4963 659.073 79.599C660.343 77.4516 658.763 73.7535 655.929 74.121C650.534 74.8182 645.907 77.9436 640.273 78.5403C634.203 79.1827 628.022 78.9546 621.932 78.9835C608.747 79.0472 594.981 78.1966 581.958 80.349C579.023 80.834 579.01 85.816 581.958 86.2911V86.2901Z" fill="#171717"/>
</g>
</g>
</g>
<defs>
<linearGradient id="paint0_linear_46_7759" x1="638.035" y1="837.114" x2="637.921" y2="917.635" gradientUnits="userSpaceOnUse">
<stop stop-color="#72DEFF"/>
<stop offset="1" stop-color="#1A9AEF"/>
</linearGradient>
<linearGradient id="paint1_linear_46_7759" x1="321.674" y1="836.427" x2="321.542" y2="918.093" gradientUnits="userSpaceOnUse">
<stop stop-color="#72DEFF"/>
<stop offset="1" stop-color="#1A9AEF"/>
</linearGradient>
<linearGradient id="paint2_linear_46_7759" x1="173.903" y1="560.4" x2="173.763" y2="612.139" gradientUnits="userSpaceOnUse">
<stop stop-color="#72DEFF"/>
<stop offset="1" stop-color="#1A9AEF"/>
</linearGradient>
<linearGradient id="paint3_linear_46_7759" x1="237.705" y1="512.339" x2="237.16" y2="680.056" gradientUnits="userSpaceOnUse">
<stop stop-color="#72DEFF"/>
<stop offset="1" stop-color="#1A9AEF"/>
</linearGradient>
<linearGradient id="paint4_linear_46_7759" x1="479.538" y1="194.118" x2="479.098" y2="463.838" gradientUnits="userSpaceOnUse">
<stop stop-color="#72DEFF"/>
<stop offset="1" stop-color="#1A9AEF"/>
</linearGradient>
<linearGradient id="paint5_linear_46_7759" x1="274.966" y1="462.089" x2="274.922" y2="480.589" gradientUnits="userSpaceOnUse">
<stop stop-color="#72DEFF"/>
<stop offset="1" stop-color="#1A9AEF"/>
</linearGradient>
<linearGradient id="paint6_linear_46_7759" x1="185.709" y1="625.937" x2="185.311" y2="775.097" gradientUnits="userSpaceOnUse">
<stop stop-color="#72DEFF"/>
<stop offset="1" stop-color="#1A9AEF"/>
</linearGradient>
<linearGradient id="paint7_linear_46_7759" x1="127.969" y1="610.959" x2="127.625" y2="705.767" gradientUnits="userSpaceOnUse">
<stop stop-color="#72DEFF"/>
<stop offset="1" stop-color="#1A9AEF"/>
</linearGradient>
<linearGradient id="paint8_linear_46_7759" x1="126.217" y1="722.08" x2="125.811" y2="870.968" gradientUnits="userSpaceOnUse">
<stop stop-color="#72DEFF"/>
<stop offset="1" stop-color="#1A9AEF"/>
</linearGradient>
<linearGradient id="paint9_linear_46_7759" x1="87.8028" y1="706.939" x2="87.643" y2="751.334" gradientUnits="userSpaceOnUse">
<stop stop-color="#72DEFF"/>
<stop offset="1" stop-color="#1A9AEF"/>
</linearGradient>
<linearGradient id="paint10_linear_46_7759" x1="120.815" y1="333.662" x2="119.591" y2="602.437" gradientUnits="userSpaceOnUse">
<stop stop-color="#72DEFF"/>
<stop offset="1" stop-color="#1A9AEF"/>
</linearGradient>
<linearGradient id="paint11_linear_46_7759" x1="624.124" y1="335.603" x2="623.922" y2="352.019" gradientUnits="userSpaceOnUse">
<stop stop-color="#72DEFF"/>
<stop offset="1" stop-color="#1A9AEF"/>
</linearGradient>
<linearGradient id="paint12_linear_46_7759" x1="622.032" y1="340.272" x2="622.026" y2="346.972" gradientUnits="userSpaceOnUse">
<stop stop-color="#72DEFF"/>
<stop offset="1" stop-color="#1A9AEF"/>
</linearGradient>
<linearGradient id="paint13_linear_46_7759" x1="211.054" y1="442.447" x2="210.99" y2="452.813" gradientUnits="userSpaceOnUse">
<stop stop-color="#72DEFF"/>
<stop offset="1" stop-color="#1A9AEF"/>
</linearGradient>
<linearGradient id="paint14_linear_46_7759" x1="210.602" y1="445.138" x2="210.593" y2="452.081" gradientUnits="userSpaceOnUse">
<stop stop-color="#72DEFF"/>
<stop offset="1" stop-color="#1A9AEF"/>
</linearGradient>
<linearGradient id="paint15_linear_46_7759" x1="779.232" y1="352.683" x2="779.159" y2="408.472" gradientUnits="userSpaceOnUse">
<stop stop-color="#72DEFF"/>
<stop offset="1" stop-color="#1A9AEF"/>
</linearGradient>
<linearGradient id="paint16_linear_46_7759" x1="580.695" y1="138.238" x2="580.6" y2="175.619" gradientUnits="userSpaceOnUse">
<stop stop-color="#72DEFF"/>
<stop offset="1" stop-color="#1A9AEF"/>
</linearGradient>
<clipPath id="clip0_46_7759">
<rect width="960" height="960" fill="white"/>
</clipPath>
<clipPath id="clip1_46_7759">
<rect width="877" height="880.462" fill="white" transform="translate(42 40)"/>
</clipPath>
</defs>
</svg>
