<svg width="960" height="960" viewBox="0 0 960 960" fill="none" xmlns="http://www.w3.org/2000/svg">
<g clip-path="url(#clip0_435_1382)">
<path fill-rule="evenodd" clip-rule="evenodd" d="M476.047 677.87C459.923 665.246 416.811 631.328 371.375 594.201L371.355 594.137C365.856 595.849 360.252 597.203 354.577 598.191V598.201C354.577 598.201 410.293 776.918 238.522 758.644C220.477 756.723 206.515 764.075 196.487 775.875C176.278 799.661 172.044 841.496 182.555 861.875C186.126 868.786 191.377 873.232 198.287 873.675C200.774 873.832 204.511 874.346 209.294 875.006C260.944 882.122 434.679 906.06 475.987 677.95L476.047 677.87ZM455.181 688.516C455.297 687.696 454.726 686.937 453.905 686.821C453.085 686.706 452.326 687.277 452.21 688.097C444.012 746.187 414.004 798.976 368.285 835.738C367.639 836.257 367.537 837.201 368.056 837.847C368.575 838.492 369.519 838.595 370.165 838.076C416.478 800.836 446.876 747.361 455.181 688.516Z" fill="#171717"/>
<path fill-rule="evenodd" clip-rule="evenodd" d="M614.368 502.553C687.495 472.517 712.874 399.128 708.206 359.959C702.885 315.228 639.335 302.625 639.335 302.625L639.315 302.645C647.871 311.271 654.977 321.224 660.358 332.117C664.934 379.242 629.286 404.217 602.912 416.117L603.374 417.143C609.494 445.158 613.139 473.657 614.268 502.311L614.368 502.553ZM696.393 356.955C696.313 356.131 695.58 355.527 694.756 355.607C693.931 355.686 693.327 356.419 693.407 357.244C696.331 387.537 687.194 417.761 667.977 441.361C667.454 442.003 667.551 442.948 668.194 443.471C668.836 443.994 669.781 443.897 670.304 443.255C690.019 419.043 699.393 388.034 696.393 356.955Z" fill="url(#paint0_linear_435_1382)"/>
<path d="M603.372 417.143C609.492 445.159 613.137 473.657 614.266 502.311L614.366 502.553C609.719 504.453 604.89 506.194 599.851 507.723C593.426 509.684 586.894 511.28 580.287 512.501L579.854 503.679L576.8 441.214L576.026 425.402C585.268 423.183 594.272 420.073 602.913 416.117L603.372 417.143Z" fill="url(#paint1_linear_435_1382)"/>
<path d="M777.963 825.369C775.107 862.369 747.696 881.427 722.006 891.204C707.193 896.736 691.673 900.153 675.906 901.354L495.16 664.65C509.353 643.597 534.017 606.95 560.281 567.713C686.056 787.89 773.175 772.842 777.44 806.921C778.236 813.037 778.411 819.218 777.963 825.369V825.369Z" fill="#171717"/>
<path d="M439.112 260.558C430.773 260.558 424.024 266.158 424.024 273.071C424.024 279.984 430.773 285.584 439.112 285.584C447.451 285.584 454.2 279.984 454.2 273.071C454.2 266.158 447.441 260.558 439.112 260.558ZM443.156 251.676C458.033 251.676 471.149 257.923 478.794 267.398C481.97 271.253 484.183 275.807 485.252 280.686H485.262C485.682 282.684 485.894 284.719 485.896 286.761C485.896 306.145 466.754 321.846 443.156 321.846C426.498 321.846 412.074 314.031 405.013 302.634C402.022 297.879 400.425 292.379 400.406 286.761C400.404 285.115 400.545 283.473 400.828 281.852C401.825 276.273 404.31 271.067 408.02 266.784V266.774C415.735 257.651 428.6 251.676 443.156 251.676Z" fill="#171717"/>
<path d="M460.708 354.809C460.708 354.809 425.04 332.197 387.068 316.867L405.013 302.634C412.074 314.034 426.498 321.846 443.156 321.846C466.756 321.846 485.896 306.146 485.896 286.761C485.895 284.719 485.682 282.683 485.262 280.686L485.896 280.555L527.449 285.584C494.788 302.765 460.708 354.809 460.708 354.809Z" fill="url(#paint2_linear_435_1382)"/>
<path d="M416.49 572.31C398.338 544.76 383.19 515.344 371.306 484.567L370.632 483.772L392.952 465.043L400.436 479.306L424.024 524.206L440.671 555.922C433.134 562.124 425.175 567.794 416.852 572.891L416.49 572.31Z" fill="url(#paint3_linear_435_1382)"/>
<path d="M465.969 171.678L459.401 174.605C443.447 181.705 403.363 199.531 395.437 202.921C385.5 207.186 390 215.937 390 215.937L408.025 266.774V266.784C404.315 271.067 401.83 276.273 400.833 281.852C398.49 289.608 388.34 291.911 388.34 291.911C388.34 291.911 386.94 266.975 386.389 255.237C386.531 254.055 386.551 252.862 386.449 251.676C386.067 246.989 386.137 249.584 386.389 255.237C385.001 267.066 371.773 271.794 371.773 271.794C371.773 271.794 366.573 225.402 362.549 206.713C358.525 188.024 369.649 185.413 369.649 185.413L432.232 157C432.232 157 428.098 132.154 435.199 130.263C441.768 128.503 445.499 150.431 446.033 153.751C445.55 150.019 442.18 122.216 450.297 122.216C458.997 122.216 459.34 158.659 459.34 158.659C459.34 158.659 465.74 129.318 472.497 129.79C479.254 130.262 474.036 158.579 473.503 162.09C473.142 164.188 472.264 166.163 470.949 167.837C469.634 169.511 467.922 170.831 465.969 171.678V171.678Z" fill="#171717"/>
<path d="M416.853 572.894C404.732 580.408 388.869 588.757 371.353 594.138C365.853 595.851 360.249 597.205 354.575 598.192C333.775 601.803 311.694 600.083 291.416 587.52C226.651 547.4 261.183 497.835 261.766 497C270.527 507.653 285.606 522.087 304.727 539.066L370.633 483.773L371.307 484.568C383.191 515.346 398.339 544.761 416.491 572.311L416.853 572.894Z" fill="url(#paint4_linear_435_1382)"/>
<path d="M599.983 508.135C587.107 527.549 573.488 547.958 560.283 567.714C534.019 606.953 509.355 643.598 495.162 664.651C487.356 676.218 482.719 683.078 482.719 683.078C482.719 683.078 480.345 681.228 476.05 677.868C459.926 665.244 416.814 631.326 371.378 594.199" stroke="#171717" stroke-width="3" stroke-linecap="round" stroke-linejoin="round"/>
<path d="M527.449 285.584C528.283 285.142 529.108 284.729 529.933 284.337C567.563 266.593 598.263 274.821 621.468 288.602C627.978 292.522 633.972 297.239 639.313 302.644C647.869 311.27 654.975 321.222 660.356 332.116" stroke="#171717" stroke-width="3" stroke-linecap="round" stroke-linejoin="round"/>
<path d="M387.068 316.867C425.04 332.197 460.708 354.809 460.708 354.809C460.708 354.809 494.788 302.765 527.449 285.584" stroke="#171717" stroke-width="3" stroke-linecap="round" stroke-linejoin="round"/>
<path d="M305.381 539.639C305.16 539.448 304.939 539.246 304.727 539.065C285.606 522.086 270.527 507.652 261.766 496.999C260.096 494.968 258.658 493.066 257.461 491.316C229.306 450.135 219.348 393.685 239.234 358.892C259.12 324.099 291.068 298.539 339.35 303.508C353.895 305.008 370.693 310.258 387.069 316.866" stroke="#171717" stroke-width="3" stroke-linecap="round" stroke-linejoin="round"/>
<path d="M304.667 539.116L304.727 539.065L370.633 483.772L392.953 465.043L400.437 479.306L424.025 524.206L440.672 555.922C433.135 562.124 425.176 567.794 416.853 572.891C404.732 580.405 388.869 588.754 371.353 594.135C365.853 595.847 360.249 597.201 354.575 598.189C333.775 601.8 311.694 600.08 291.416 587.517C226.651 547.399 261.183 497.834 261.766 496.999L261.776 496.989" stroke="#171717" stroke-width="3" stroke-linecap="round" stroke-linejoin="round"/>
<path d="M639.333 302.623C639.333 302.623 702.884 315.223 708.205 359.958C712.873 399.127 687.494 472.516 614.367 502.552C609.72 504.452 604.891 506.193 599.852 507.722C593.427 509.683 586.895 511.279 580.288 512.5L579.855 503.678L576.8 441.213L576.026 425.401C585.268 423.182 594.272 420.072 602.913 416.116C629.287 404.216 664.935 379.241 660.359 332.116" stroke="#171717" stroke-width="3" stroke-linecap="round" stroke-linejoin="round"/>
<path d="M408.02 266.774C415.735 257.651 428.601 251.674 443.156 251.674C458.033 251.674 471.149 257.921 478.794 267.396C481.97 271.251 484.183 275.805 485.252 280.684H485.262C485.682 282.682 485.894 284.717 485.896 286.759C485.896 306.143 466.754 321.844 443.156 321.844C426.498 321.844 412.074 314.029 405.013 302.632C402.022 297.877 400.425 292.377 400.406 286.759C400.404 285.113 400.545 283.471 400.828 281.85C401.825 276.271 404.31 271.065 408.02 266.782" stroke="#171717" stroke-width="3" stroke-linecap="round" stroke-linejoin="round"/>
<path d="M439.112 285.584C447.445 285.584 454.2 279.981 454.2 273.071C454.2 266.16 447.445 260.558 439.112 260.558C430.78 260.558 424.024 266.16 424.024 273.071C424.024 279.981 430.78 285.584 439.112 285.584Z" stroke="#171717" stroke-width="3" stroke-linecap="round" stroke-linejoin="round"/>
<path d="M478.794 267.4C478.794 267.4 483.663 267.772 482.994 260.56C482.325 253.348 461.946 175 461.946 175" stroke="#171717" stroke-width="3" stroke-linecap="round" stroke-linejoin="round"/>
<path d="M386.385 255.236C386.938 266.974 388.336 291.91 388.336 291.91C388.336 291.91 398.486 289.61 400.829 281.851C401.022 281.221 401.156 280.575 401.229 279.92" stroke="#171717" stroke-width="3" stroke-linecap="round" stroke-linejoin="round"/>
<path d="M386.385 255.237C386.527 254.055 386.547 252.862 386.445 251.676C386.063 246.989 386.133 249.584 386.385 255.237Z" stroke="#171717" stroke-width="3" stroke-linecap="round" stroke-linejoin="round"/>
<path d="M446.094 154.165C446.094 154.165 446.074 154.024 446.034 153.753C445.5 150.433 441.769 128.505 435.2 130.265C428.1 132.156 432.233 157.002 432.233 157.002L369.647 185.408C369.647 185.408 358.522 188.013 362.547 206.708C366.572 225.403 371.771 271.789 371.771 271.789C371.771 271.789 384.999 267.061 386.387 255.232" stroke="#171717" stroke-width="3" stroke-linecap="round" stroke-linejoin="round"/>
<path d="M408.02 266.784V266.774L390 215.937C390 215.937 385.5 207.186 395.442 202.921C403.368 199.531 443.452 181.707 459.406 174.605L465.974 171.678C467.927 170.831 469.638 169.511 470.954 167.838C472.269 166.164 473.147 164.189 473.508 162.092C474.041 158.582 479.272 130.266 472.502 129.792C465.732 129.318 459.345 158.661 459.345 158.661C459.345 158.661 459 122.219 450.3 122.219C442.183 122.219 445.553 150.019 446.036 153.754" stroke="#171717" stroke-width="3" stroke-linecap="round" stroke-linejoin="round"/>
<path d="M387.068 316.866L405.013 302.633L405.033 302.623" stroke="#171717" stroke-width="3" stroke-linecap="round" stroke-linejoin="round"/>
<path d="M485.896 280.555L527.449 285.584" stroke="#171717" stroke-width="3" stroke-linecap="round" stroke-linejoin="round"/>
<path d="M431.176 269.187C431.176 269.187 434.847 273.211 439.112 272.265C441.818 271.528 444.144 269.792 445.62 267.407" stroke="#171717" stroke-width="3" stroke-linecap="round" stroke-linejoin="round"/>
<path d="M436.386 247.653L447.39 245.409L431.176 201.382L457.922 190.146" stroke="#171717" stroke-width="3" stroke-linecap="round" stroke-linejoin="round"/>
<path d="M413.433 227.775C413.433 227.775 413.785 223.39 416.39 222.444C418.995 221.498 422.657 221.861 424.025 223.752" stroke="#171717" stroke-width="3" stroke-linecap="round" stroke-linejoin="round"/>
<path d="M449.282 216.178C449.282 216.178 449.402 211.914 453.194 210.616C456.986 209.318 460.175 213.392 460.175 213.392" stroke="#171717" stroke-width="3" stroke-linecap="round" stroke-linejoin="round"/>
<path d="M354.578 598.199C354.578 598.199 410.294 776.916 238.519 758.639C220.474 756.718 206.512 764.071 196.484 775.87C176.275 799.659 172.041 841.494 182.552 861.87C186.123 868.78 191.374 873.226 198.284 873.67C227.626 875.521 430.854 927.183 475.984 677.945" stroke="#171717" stroke-width="3" stroke-linecap="round" stroke-linejoin="round"/>
<path d="M495.16 664.65L675.907 901.35C691.674 900.149 707.194 896.732 722.007 891.2C747.697 881.423 775.107 862.362 777.964 825.365C778.412 819.214 778.237 813.033 777.441 806.917C773.176 772.838 686.057 787.886 560.282 567.709" stroke="#171717" stroke-width="3" stroke-linecap="round" stroke-linejoin="round"/>
<path d="M196.5 775.871H196.48L155.087 767.522C155.087 767.522 139.114 759.354 127.758 781.715C116.402 804.076 83.026 872.244 83.026 872.244C83.026 872.244 74.144 888.932 86.567 896.033C98.99 903.134 110.708 911.655 125.625 899.933C140.542 888.211 158.89 863.209 182.548 861.871" stroke="#171717" stroke-width="3" stroke-linecap="round" stroke-linejoin="round"/>
<path d="M722.006 891.205L738.865 910.116C738.865 910.116 748.33 922.901 767.733 919.108C787.136 915.315 864.298 899.745 871.872 891.208C879.446 882.671 887.966 868.465 883.229 851.898C878.492 835.331 879.919 810.718 850.095 816.864C820.271 823.01 832.231 833.913 778.205 825.393" stroke="#171717" stroke-width="3" stroke-linecap="round" stroke-linejoin="round"/>
<path d="M454.723 478.642C454.731 478.641 454.738 478.637 454.743 478.632C455.8 477.958 495.281 453.083 500.883 461.492C506.556 470.012 424.024 524.208 424.024 524.208" stroke="#171717" stroke-width="3" stroke-linecap="round" stroke-linejoin="round"/>
<path d="M439.112 470.727L439.142 470.697C440.691 469.329 493.49 422.545 497.685 429.184C501.899 435.853 455.86 477.607 454.743 478.633" stroke="#171717" stroke-width="3" stroke-linecap="round" stroke-linejoin="round"/>
<path d="M400.406 480.352C400.406 480.352 400.416 479.98 400.436 479.306C400.748 471.088 403.192 417.223 415.323 418.531C428.46 419.959 418.803 467.175 418.803 467.175C418.803 467.175 475.163 400.787 483.049 406.108C490.835 411.369 440.48 469.157 439.142 470.696" stroke="#171717" stroke-width="3" stroke-linecap="round" stroke-linejoin="round"/>
<path d="M559.819 495.572C559.81 495.58 559.8 495.587 559.789 495.592C558.582 496.457 517.642 525.759 522.541 532.448C527.51 539.237 579.856 503.679 579.856 503.679" stroke="#171717" stroke-width="3" stroke-linecap="round" stroke-linejoin="round"/>
<path d="M552.939 480.434C550.072 482.214 502.292 512.079 506.668 517.591C511.114 523.183 558.451 496.347 559.789 495.591" stroke="#171717" stroke-width="3" stroke-linecap="round" stroke-linejoin="round"/>
<path d="M576.024 441.253C576.024 441.253 530.578 431.315 527.45 443.034C524.322 454.753 555.201 456.875 555.201 456.875C555.201 456.875 496.115 491.668 501.165 499.836C506.053 507.752 550.265 482.002 552.938 480.436C553.018 480.385 553.068 480.355 553.068 480.355" stroke="#171717" stroke-width="3" stroke-linecap="round" stroke-linejoin="round"/>
<path d="M614.266 502.311C613.137 473.657 609.492 445.158 603.372 417.143" stroke="#171717" stroke-width="3" stroke-linecap="round" stroke-linejoin="round"/>
<path d="M416.491 572.311C398.339 544.761 383.191 515.346 371.307 484.568" stroke="#171717" stroke-width="3" stroke-linecap="round" stroke-linejoin="round"/>
<path d="M169.5 863.845C162.449 854.978 157.89 844.391 156.292 833.176" stroke="#171717" stroke-width="3" stroke-linecap="round" stroke-linejoin="round"/>
<path d="M154.749 871.529C148.784 863.445 144.44 854.284 141.955 844.551" stroke="#171717" stroke-width="3" stroke-linecap="round" stroke-linejoin="round"/>
<path d="M140.516 881.508C133.472 874.804 128.119 866.522 124.9 857.346" stroke="#171717" stroke-width="3" stroke-linecap="round" stroke-linejoin="round"/>
<path d="M827.181 826.1C826.34 837.067 827.268 848.098 829.927 858.771" stroke="#171717" stroke-width="3" stroke-linecap="round" stroke-linejoin="round"/>
<path d="M814.447 829.434C812.415 840.444 812.103 851.703 813.521 862.809" stroke="#171717" stroke-width="3" stroke-linecap="round" stroke-linejoin="round"/>
<path d="M797.629 828.207L796.06 858.021" stroke="#171717" stroke-width="3" stroke-linecap="round" stroke-linejoin="round"/>
<path d="M638.478 466.893L644.69 449.793" stroke="#171717" stroke-width="3" stroke-linecap="round" stroke-linejoin="round"/>
<path d="M658.855 394.442L672.344 396.588" stroke="#171717" stroke-width="3" stroke-linecap="round" stroke-linejoin="round"/>
<path d="M683.711 361.023L682.046 348.986" stroke="#171717" stroke-width="3" stroke-linecap="round" stroke-linejoin="round"/>
<path d="M371.979 578.993L376.947 564.793" stroke="#171717" stroke-width="3" stroke-linecap="round" stroke-linejoin="round"/>
<path d="M356.388 527.881L344.318 525.75" stroke="#171717" stroke-width="3" stroke-linecap="round" stroke-linejoin="round"/>
<path d="M301.727 571.287L314.507 569.861" stroke="#171717" stroke-width="3" stroke-linecap="round" stroke-linejoin="round"/>
<path d="M276.8 542.818L271.8 530.758" stroke="#171717" stroke-width="3" stroke-linecap="round" stroke-linejoin="round"/>
<path d="M453.663 336.882L463.603 329.071" stroke="#171717" stroke-width="3" stroke-linecap="round" stroke-linejoin="round"/>
<path d="M499.451 294.657L494.751 290.119" stroke="#171717" stroke-width="3" stroke-linecap="round" stroke-linejoin="round"/>
<path d="M312.376 896.086C334.23 891.865 354.72 882.36 372.057 868.4" stroke="#171717" stroke-width="3" stroke-linecap="round" stroke-linejoin="round"/>
<path d="M315.006 720.782C329.18 705.636 337.069 685.67 337.076 664.926" stroke="#171717" stroke-width="3" stroke-linecap="round" stroke-linejoin="round"/>
<path d="M686.1 701.213L655.358 664.713" stroke="#171717" stroke-width="3" stroke-linecap="round" stroke-linejoin="round"/>
<path d="M598.51 579.13L635.78 524.086" stroke="#171717" stroke-width="3" stroke-linecap="round" stroke-linejoin="round"/>
<path d="M625.846 575.7L638.401 557.438" stroke="#171717" stroke-width="3" stroke-linecap="round" stroke-linejoin="round"/>
<path d="M656.301 280.513C644.934 268.719 631.67 258.915 617.062 251.507" stroke="#171717" stroke-width="3" stroke-linecap="round" stroke-linejoin="round"/>
<path d="M656.378 248.482L640.4 241.027" stroke="#171717" stroke-width="3" stroke-linecap="round" stroke-linejoin="round"/>
<path d="M220.982 509.287C209.869 491.374 202.562 471.365 199.516 450.506C196.469 429.646 197.749 408.383 203.275 388.04L203.446 391.191" stroke="#171717" stroke-width="3" stroke-linecap="round" stroke-linejoin="round"/>
<path d="M171.747 456.178C168.763 446.754 169.161 436.584 172.873 427.422" stroke="#171717" stroke-width="3" stroke-linecap="round" stroke-linejoin="round"/>
<path d="M316.617 623.451C312.264 622.851 308.132 621.16 304.607 618.536C301.081 615.913 298.275 612.441 296.449 608.443" stroke="#171717" stroke-width="3" stroke-linecap="round" stroke-linejoin="round"/>
<path d="M695.251 459.687L708.919 437.213" stroke="#171717" stroke-width="3" stroke-linecap="round" stroke-linejoin="round"/>
<path d="M768.213 531.78L750.113 516.865" stroke="#171717" stroke-width="3" stroke-linecap="round" stroke-linejoin="round"/>
<path d="M752.285 536.053C753.463 527.459 757.534 519.523 763.827 513.553" stroke="#171717" stroke-width="3" stroke-linecap="round" stroke-linejoin="round"/>
<path d="M783.565 547.188C777.175 553.421 772.24 560.988 769.114 569.35C765.989 577.711 764.748 586.66 765.483 595.557C766.483 606.622 772.117 618.766 782.897 621.456C793.539 624.108 805.286 614.192 804.456 603.257C804.388 600.722 803.372 598.305 801.608 596.484C797.628 592.831 790.995 594.934 787.049 598.624C783.562 602.003 781.16 606.343 780.146 611.092C779.133 615.841 779.554 620.784 781.358 625.293C785.169 634.352 793.989 640.059 800.99 646.956C807.991 653.853 813.59 664.58 808.911 673.224C807.266 676.264 804.543 678.578 801.278 679.712C798.012 680.846 794.441 680.717 791.266 679.35C788.091 677.983 785.543 675.478 784.122 672.327C782.701 669.176 782.51 665.608 783.588 662.323" stroke="#171717" stroke-width="3" stroke-linecap="round" stroke-linejoin="round"/>
<path d="M78.1253 568.6C70.7473 597.915 81.5403 631.024 104.778 650.359C112.669 656.924 123.656 662.087 132.965 657.759C140.784 654.123 144.475 645.077 146.035 636.596C147.522 628.511 146.38 618.024 138.651 615.225C134.131 613.588 128.838 615.574 125.679 619.197C122.52 622.82 121.236 627.763 121.084 632.568C120.963 638.212 122.234 643.799 124.785 648.835C127.337 653.872 131.09 658.202 135.712 661.443C140.262 664.564 145.712 666.692 149.019 671.109C154.589 678.549 150.432 691.035 141.519 693.652C132.606 696.269 122.356 688.012 123.019 678.742" stroke="#171717" stroke-width="3" stroke-linecap="round" stroke-linejoin="round"/>
<path d="M144.075 592.499L139.819 575.457" stroke="#171717" stroke-width="3" stroke-linecap="round" stroke-linejoin="round"/>
<path d="M133.574 587.422L149.508 578.822" stroke="#171717" stroke-width="3" stroke-linecap="round" stroke-linejoin="round"/>
<path d="M199.471 292.149C199.262 284.406 197.449 276.79 194.146 269.783" stroke="#171717" stroke-width="3" stroke-linecap="round" stroke-linejoin="round"/>
<path d="M185.032 285.759L201.243 278.559" stroke="#171717" stroke-width="3" stroke-linecap="round" stroke-linejoin="round"/>
<path d="M677.679 223.986L673.418 204.815" stroke="#171717" stroke-width="3" stroke-linecap="round" stroke-linejoin="round"/>
<path d="M668.188 216.772L682.011 211.393" stroke="#171717" stroke-width="3" stroke-linecap="round" stroke-linejoin="round"/>
<path d="M752.689 159.487C758.33 154.335 767.428 153.787 774.021 157.646C780.614 161.505 784.528 169.236 784.467 176.877C784.406 184.518 780.637 191.898 774.967 197.022C770.667 200.914 764.647 203.665 759.083 202.014C753.519 200.363 749.939 192.798 753.674 188.356C756.153 185.408 760.786 184.996 764.284 186.61C767.782 188.224 770.284 191.445 772.109 194.839C774.659 199.671 776.11 205.007 776.359 210.465C776.607 215.923 775.648 221.369 773.548 226.413C771.286 231.738 767.557 236.662 762.348 239.177C757.139 241.692 750.333 241.322 746.134 237.341C741.935 233.36 741.561 225.658 746.04 221.996" stroke="#171717" stroke-width="3" stroke-linecap="round" stroke-linejoin="round"/>
<path d="M449.018 96.1435L442.673 39.8115" stroke="#171717" stroke-width="3" stroke-linecap="round" stroke-linejoin="round"/>
<path d="M274.301 234.637C274.301 234.637 204.793 215.571 213.313 197.945C221.833 180.319 252.047 197.945 252.047 197.945C252.047 197.945 240.724 168.604 252.047 166.473C263.37 164.342 274.301 234.637 274.301 234.637Z" stroke="#171717" stroke-width="3" stroke-linecap="round" stroke-linejoin="round"/>
<path d="M608.818 117.481C612.381 104.7 592.474 84.4655 579.854 89.4455C567.234 94.4255 608.818 155.125 608.818 155.125C608.818 155.125 655.312 110.281 640.402 103.763C625.492 97.2455 608.818 117.481 608.818 117.481Z" stroke="#171717" stroke-width="3" stroke-linecap="round" stroke-linejoin="round"/>
<path d="M185.032 503.322C185.032 503.322 122.787 544.211 119.592 525.75C116.397 507.289 152.312 492.414 152.312 492.414C152.312 492.414 124.512 493.377 132.704 473.174C140.896 452.971 185.032 503.322 185.032 503.322Z" stroke="#171717" stroke-width="3" stroke-linecap="round" stroke-linejoin="round"/>
<path d="M758.057 422.738C758.057 422.738 827.852 301.026 840.632 329.072C853.412 357.118 814.446 393.713 814.446 393.713C814.446 393.713 865.128 388.764 859.803 417.141C854.478 445.518 758.057 422.738 758.057 422.738Z" stroke="#171717" stroke-width="3" stroke-linecap="round" stroke-linejoin="round"/>
<path d="M431.607 101.459L408.132 74.1201" stroke="#171717" stroke-width="3" stroke-linecap="round" stroke-linejoin="round"/>
<path d="M468.563 104.232L483.3 71.3486" stroke="#171717" stroke-width="3" stroke-linecap="round" stroke-linejoin="round"/>
<g opacity="0.1">
<path d="M298.616 308.168C290.282 307.079 281.954 311.799 275.016 316.019C267.728 320.46 261.029 325.802 255.078 331.919C242.832 344.507 234.278 360.848 230.025 377.843C220.215 417.056 232.335 459.256 255.869 491.243C268.88 508.925 284.569 523.821 302.09 536.968C306.69 540.419 313.982 537.709 316.648 533.151C319.83 527.71 317.442 522.051 312.831 518.592C286.837 499.092 263.984 472.964 253.56 441.755C243.005 410.155 245.431 376.212 264.646 348.555C269.201 341.9 274.683 335.931 280.928 330.83C287.603 325.449 296.021 322.605 302.097 316.576C305.431 313.267 302.606 308.695 298.617 308.176L298.616 308.168Z" fill="#171717"/>
</g>
<g opacity="0.1">
<path d="M376.976 591.975C373.088 602.508 387.245 612.842 393.825 619.082C401.94 626.776 410.525 634.017 419.245 641.014C427.986 648.03 436.94 654.772 446.107 661.24C455.214 667.64 464.907 675.372 475.127 679.835C479.927 681.935 485.307 681.643 488.679 677.135C491.501 673.358 492.029 666.611 487.858 663.341C478.414 655.941 467.437 650.272 457.522 643.462C448.301 637.129 439.289 630.489 430.567 623.483C421.601 616.283 412.956 608.698 404.385 601.031C399.993 597.103 395.619 592.054 390.369 589.276C386.152 587.043 378.947 586.642 376.976 591.976V591.975Z" fill="#171717"/>
</g>
<g opacity="0.1">
<path d="M458.669 174.9C454.198 172.171 448.351 175.155 443.869 176.753C438.105 178.81 432.487 181.301 426.769 183.478C421.051 185.655 415.347 187.856 409.628 190.025C404.617 191.925 399.022 193.43 394.528 196.425C383.782 203.584 383.978 215.492 386.028 226.91C387.084 232.797 388.466 238.622 390.168 244.356C391.888 250.147 393.668 257.778 398.531 261.71C402.723 265.096 410.317 264.58 411.615 258.256C413.363 249.747 408.771 240.207 406.794 231.938C404.979 224.346 402.454 216.038 403.331 208.19L402.176 212.46C404.217 207.751 410.076 206.002 414.417 203.848C419.9 201.129 425.426 198.49 430.939 195.831C436.452 193.172 442.125 190.811 447.639 188.131C452.014 186.008 458.925 183.67 460.126 178.44C460.294 177.772 460.244 177.068 459.985 176.43C459.725 175.793 459.269 175.254 458.683 174.893L458.669 174.9Z" fill="#171717"/>
</g>
</g>
<defs>
<linearGradient id="paint0_linear_435_1382" x1="655.827" y1="302.625" x2="654.855" y2="501.46" gradientUnits="userSpaceOnUse">
<stop stop-color="#72DEFF"/>
<stop offset="1" stop-color="#1A9AEF"/>
</linearGradient>
<linearGradient id="paint1_linear_435_1382" x1="595.196" y1="416.117" x2="594.573" y2="511.972" gradientUnits="userSpaceOnUse">
<stop stop-color="#72DEFF"/>
<stop offset="1" stop-color="#1A9AEF"/>
</linearGradient>
<linearGradient id="paint2_linear_435_1382" x1="457.259" y1="280.555" x2="457.158" y2="354.404" gradientUnits="userSpaceOnUse">
<stop stop-color="#72DEFF"/>
<stop offset="1" stop-color="#1A9AEF"/>
</linearGradient>
<linearGradient id="paint3_linear_435_1382" x1="405.651" y1="465.043" x2="405.224" y2="572.302" gradientUnits="userSpaceOnUse">
<stop stop-color="#72DEFF"/>
<stop offset="1" stop-color="#1A9AEF"/>
</linearGradient>
<linearGradient id="paint4_linear_435_1382" x1="334.452" y1="483.773" x2="334.242" y2="599.223" gradientUnits="userSpaceOnUse">
<stop stop-color="#72DEFF"/>
<stop offset="1" stop-color="#1A9AEF"/>
</linearGradient>
<clipPath id="clip0_435_1382">
<rect width="813" height="884" fill="white" transform="translate(74 38)"/>
</clipPath>
</defs>
</svg>
